<?xml version="1.0" encoding="UTF-8"?>
<svg id="Ebene_1" data-name="Ebene 1" xmlns="http://www.w3.org/2000/svg" viewBox="0 0 595.28 840.09">
  <defs>
    <style>
      .cls-1 {
        fill: #fff;
      }

      .cls-2, .cls-3 {
        fill: none;
      }

      .cls-3 {
        stroke: #fff;
        stroke-miterlimit: 10;
        stroke-width: 5.84px;
      }

      .cls-4 {
        fill: #1d1d1b;
      }

      .cls-5 {
        fill: #ea5b0c;
      }
    </style>
  </defs>
  <rect class="cls-4" width="595.28" height="840.09"/>
  <g>
    <rect class="cls-2" x="168.35" y="405" width="258.57" height="37.84"/>
    <path class="cls-1" d="M202.61,406.82c.6.05,1.15.22,1.15.88,0,1.38-.99,1.81-2.09,1.98.05-.05.11-.22.11-.66-.27.71-1.15,1.43-2.36,1.49-2.86.17-6.16.5-8.25.5-.88,0-1.65-.11-1.92-.44-.05-.05-.11-.11-.11-.22,0-.33.44-.83,1.59-1.54-1.48.83-2.31,1.38-2.31,1.65,0,.17.22.17.71.17l-3.08.39c.6.38.99.77.99,1.21,0,.39-.77,4.73-.99,5.67-.11.33-.17.71-.11.93,0,0,0,2.09-.44,2.36v2.53c0,.05.11.5.27.77.17.61.38,1.21.38,1.81,0,.39-.05.72-.33,1.04v.22c0,1.92-.11,3.79-1.16,4.12.28,1.1.66,2.97.66,3.24s-.11,1.71-1.21,1.71,0,.44-2.58.44c-.17,0-.38-.17-.55-.55-.11.05-.22.05-.33.05-.77,0-1.59-.55-1.59-3.08,0-1.87,0-3.19.33-4.07-.22-.93-.44-2.25-.44-2.8v-.66c0-1.38.11-1.65-.11-3.35,0-.44.22-.77.44-1.1-.27-.27-.27-.88-.27-1.43,0-.27.05-.5.22-.77,0-.11-.05-.28-.05-.44,0-1.32.71-5.83.93-6.93-2.03.27-1.71.6-4.67.6-.22,0-.44,0-.61-.05,0,.93-6.38.71-9.07,1.76-.33.11-.66.11-.99.11-1.49,0-3.08-.66-3.08-1.32,0-.05,0-.11.06-.17-.22-.11-.33-.27-.33-.44,0-.44,1.43-2.09,4.34-3.35.05-.06.11-.06.22,0,.44-1.21,4.23-2.04,7.64-2.04.66-.05,3.13-.28,5.77-.71l1.38-.22.05-.38c.28-1.38.61-1.92,1.04-1.92.5,0,1.1.88,1.59,1.92,3.08-.28,4.62-.28,6.76-.28h2.97c.61,0,1.87-.28,2.86-.28s1.38.5,1.54.72c.17-.06.28-.11.44-.11.22,0,.44.05.77.27l.17.22.38-.28c.5-.27.94-.55,1.38-.55.22,0,.5.05.66.17.44.33,1.04,1.04,1.21,1.21Z"/>
    <path class="cls-1" d="M241.28,442.12c0,.44-.28,1.54-1.48,1.54-.88,0-1.92-1.04-1.92-1.04-.33-.22-.61-.5-.61-1.04,0-.33.05-.55.17-.71-1.15,0-2.2.66-3.41.66-.5,0-1.92,0-1.92-.66,0,0-1.59.17-2.14.17-1.27,0-2.8-.27-4.18-1.15-.99-.61-7.42-4.34-8.74-4.62-.77-.38-2.53.11-3.19-1.1-.33-.55-.66-.93-1.04-1.1-.17.05-.6.11-.66.17-1.04,0-2.8-1.82-3.24-1.82-1.26,0-2.09-.82-3.96-1.54-.27.5-.71,1.15-.82,1.21.22.38.27.38.27.38.22.38.38.83.38,1.54s-.55,1.04-.55,1.54c.22.28.39.61.39,1.04,0,.94-.88,1.49-1.54,1.87.05-.05.11-.05.11-.22-.11.11-.17.27-.17.33-.33.77-.88,1.92-1.7,1.92-.11,0-.28-.05-.38-.11h-1.1l-.27-2.47.27-1.32.33-2.58-.5-1.82.61-2.2s-.33.33-.33.93c-.17-.33-.33-.77-.33-1.38,0-.33.05-.66.22-.99l-.38-.06c-.27-.05-.33,0-1.04-.44h-.66c-1.15,0-2.42-.17-2.42-1.59,0-.94.93-1.59,1.7-1.92l.39-.82c.05,0,1.65-.55,2.8-.88l.55-2.8.88,1.1c-.33-.66-1.16-2.8-1.16-3.02v-.55c-1.26-.99-3.9-4.62-3.9-6.54,0-.88.38-2.14,1.32-2.97.99-.88,3.96-2.47,4.73-2.47.55,0,.99.33,1.16.71.5,0,1.54-.22,2.31-.22,1.71,0,5.66.99,5.72.99,0,0,.39-.27.99-.27.93,0,1.32.77,2.42,1.32-.05-.11-.05-.27-.05-.38,1.76,0,1.92,1.16,3.24,1.49l2.09.99v.88c.17.17.27.22.38.28l.6.99c0,.99.33,1.6.33,2.31,0,2.64-1.37,3.13-2.58,3.63-1.27.55-2.31,3.02-4.01,3.02-4.01,0-1.16,1.32-5.72,2.97-.22.17-.44.17-.66.17h-.33c-.17,0-.33,0-.44.06-1.1.77-1.59.93-2.03.93l-.55.22.55.28c.38.27.82.55.99.6.11,0,.33-.05.55-.05.99,0,3.74,2.47,4.84,3.02.71.38,1.04.55,1.04,1.26,0,.05-.05.11-.05.17,0,.22,5.72,1.1,5.77,1.1l2.2,1.21c1.26.71,2.8,1.76,3.74,2.04.05,0,.11.05.22.11,1.16.44,4.51,1.65,5.72,1.87,3.96,0,9.13,1.04,9.13,3.19,0,.5-.44.83-1.1,1.04.61.05,1.21.17,1.21.17l.66.38s.33.5.33,1.1ZM200.64,414.19h-.33l.17.17.17.38c0-.28.05-.44,0-.55ZM201.52,412.15c.38-.6.99-1.04,1.87-1.04h.44l1.16-.5c-.55,0-1.76.44-2.2.44h-.33c-.11,0-.22-.05-.38-.05-.27,0-.55.82-.55,1.15ZM208.01,414.84c-.22,2.31-1.65,3.41-1.71,3.68v.33c0,.11.06.17.06.28s0,.22-.06.38l.99-.55c.6-.5,1.54-1.1,2.64-1.1.11,0,.38.05.6.05.61-.71,1.65-1.92,2.97-1.92.38,0,1.43-.93,1.65-1.48-1.04,0-1.54-.72-1.98-1.38-.11-.11-.17-.22,0-.33-.77,0-2.91-.66-2.91-.66l-2.04-.6c0,.27-.05,1.81-.22,3.3ZM217.14,423.92c.99,0,1.48.6,1.48,1.38,0,.5-.77,1.92-1.65,1.92s-1.76-1.1-1.76-1.82c0-.55.22-.99.93-1.26.22-.17.66-.22.99-.22Z"/>
    <path class="cls-1" d="M246.45,429.03c0,.6-.06,1.16-.28,1.43.5.55.66,1.04.66,1.49,0,.82-.55,1.43-.99,1.76l-.55.71c-.5.66-1.1,1.43-1.65,1.59h-.44c.55.55.99,1.04.99,1.04l-2.64.99c-.77-.22-1.21-1.21-1.21-2.03,0-.5.17-.94.55-1.1-.77-.77-.83-2.2-.83-2.64,0-.17,0-.28.06-.28l1.1-.99c0-.22-.33-5.17-1.81-5.17v2.03c-.28,0-.88,0-1.26-1.1-.55-1.48-.33-1.87-1.1-1.87-.55,0-.93.49-1.59.6-2.14.38-.93,1.49-4.34,1.59-1.49.05-1.71.22-1.82.38l-.33.28c-.49.44-1.48.83-1.48.83-.05.55-.22,1.21-.44,1.54-.17.28-.66.66-.66.66.05.28.05.55.05.88,0,1.87-2.64,2.37-2.75,2.47-1.1-.38-2.31-1.26-2.31-2.36,0-.77,1.54-2.09,1.54-2.75,0-.17-.17-.17-.17-1.04,0-1.54,2.04-2.75,2.42-3.46.33-1.21,2.75-5.88,2.75-6.1,0-.38-.11-.71-.11-.71,0,0,.55-1.1,1.1-1.76.5-.88.17-2.31,1.1-2.92.55-.33,1.76-2.69,2.14-2.69,0-.44,1.43-2.8,2.04-2.8-.05,0-.22,0-.22-.28.11-.6.38-1.32.77-1.76.55-.66,1.1-.93,1.65-.93.44,0,.82.17,1.15.38.11.05,1.59-.5,1.59-.5,0,0,.44,2.8.44,3.52.27.17,1.48,1.1,1.48,1.82,0,1.81.17,2.47.17,2.47,0,0,1.26,1.04,1.26,1.54,0,.22-.38,1.04-.38,1.43v.22c.66.66,1.16,1.98,1.16,2.91,0,.22,0,.39-.06.55,1.1.44,1.82,1.1,1.82,1.81,0,.6-.71.93-.94,1.1l.77.17c0,.22,0,2.42.93,2.86,0,0,.66,2.47.66,4.18ZM236,420.62c0,.11.06.33.17.5-.11-.44-.11-1.48-.11-2.25v-.93c-.88-.77-.94,0-1.82-2.42-.27.83-.71,1.87-.71,1.87l-.88.27c-.05.22.11.94-1.48,1.87.38-.17.55-.22.55-.22v.44c0,.28,0,.55-.11.88l-.44.77c-.22.44-.55.99-.83,1.32,1.49-.33,1.54-.17,2.25-.55-.05-.11.66-2.31.66-2.31l1.1,1.21c.33-.33,1.54-.33,1.65-.44ZM240.46,425.4c.11,0,.27-.05.44-.22l-.38-.17c-.28.06-.44.11-.44.17.06.11.22.22.39.22Z"/>
    <path class="cls-1" d="M284.84,427.88c0,.88-.93,1.27-2.2,1.71l-.38.17c-.71.22-3.74,1.49-3.79,1.49-1.26.44-2.09.38-2.91.49l-.72.11c-.05.22-.05.38-.33.77-.55.77-1.82,1.21-4.34,2.04l-1.04.38c-.99.33-1.59.44-1.87.44h-.33c-.49.77-1.43,1.54-4.23,1.54s-7.15-.82-8.41-1.04c-.11,0-.17-.05-.22-.05-1.1-.27-3.3-1.32-4.51-2.97,0,0-.99-2.58-.99-3.57,0-.55-.88-2.64-.88-3.74,0-1.16,1.38-2.14,1.38-2.14.05-.06.11-.28.11-.39v-1.15c-.06-.06-.06-.17-.06-.22,0-.77.94-1.43,1.87-2.09-.17-.22-.22-.5-.22-.88,0-1.38,2.8-3.68,3.74-4.46l1.15-1.21,1.27-.22v-.44c0-1.71,8.25-3.02,12.1-3.02,8.52,0,11.6,7.09,11.6,10.34,0,1.65-1.1,1.87-2.47,1.87s-2.25,0-2.25-1.81c0-1.71,2.04-1.98,1.49-2.97-2.58,0-4.67-1.54-4.84-1.76-.55-.28-2.09-.44-2.53-1.71-4.95-1.38-5.33,3.63-9.84,3.63-.22,0-.44-.06-.6-.17-.71.71-.99,1.43-1.59,2.09,0,.16.11.49.16.99.11.44.11.61.11.71,0,1.04-.33,1.1-1.21,1.32l-.88.17c-.66.27-.71.49-.77.93l-.17.83c-.05.17-.17.55-.11.6-.05.22-.17.66-.17.61.22.88,1.32,1.98,1.32,3.63,0,.22,0,.38-.11.61-.05.11-.05.22,0,.33.33,0,1.43.88,2.09,1.54,1.1,0,1.71.83,2.25.83l3.96.28c1.04-.66,3.08-.88,3.68-.88.44,0,2.15-.55,4.18-1.37,2.37-.94,2.69-2.8,4.12-2.8.16,0,.55.11.55.11l.49-.44c.22-.22.61-.61,1.65-1.1l4.12.82c.22,0,.44.11.71.11l.17.05c.44.22.71.38.71,1.1Z"/>
    <path class="cls-1" d="M320.26,429.69c.11-.06.17-.17.22-.33,0,.11-.05.22-.05.33,1.87.11,3.96.22,4.07.22,0,0-4.51,2.69-5.77,2.69h-.38c-.11,0-.22,0-.33-.05-1.38-.17-8.25-1.54-8.96-1.71-.77-.11-2.97-1.15-3.41-1.15-.66,0-.99.17-1.32.17-.93,0-3.19-1.26-4.84-1.26h-.61c-1.87,0-2.69-1.1-4.23-.61-.88,0-4.56-.66-7.26-1.15-.11.17-.11.33-.11.38,0,.55.61,1.26.61,2.42,0,2.31-.44,6.88-1.87,6.88-.77,0-1.65-1.04-1.65-1.04,0,1.32,0,1.48.05,1.48-.61.5-.77.99-1.59.99-.44,0-1.54-.17-1.54-1.59,0-.39.05-.99.17-1.54.22-2.37.44-3.68.88-6.71l.28-1.82c-1.1,0-2.09-.44-2.25-1.48,0-1.1,1.1-1.76,2.8-2.47l.11-.55c.11-.71.17-1.16.17-1.32v-.22c0-.11-.05-.22-.05-.33,0-2.64.93-2.75,2.42-2.8l-1.98-.22c0-.83.33-2.47.33-3.13-.05-1.26.88-2.64.99-3.74.22-1.92,1.81-3.35,3.08-3.35h.22c0-.28,1.43-1.1,2.09-1.1,1.04,0,2.09,1.15,2.09,2.14,0,1.1-.82,1.92-1.48,2.58l-.38.44c-.22.28-1.16,5.44-1.76,8.63l-.28,1.04c.66.05,3.02-2.04,3.63-2.42.93-.6,8.91-9.02,8.91-8.8,0-.33-1.16-.66-2.04-.66h-.77c-1.21,0-2.37-.71-2.37-.71,0-2.09,2.75-2.03,4.29-2.2-.11-.17-.17-.38-.17-.66,0-.6,2.25-1.38,4.62-1.38,3.46,0,5.33.71,5.33,2.75,0,1.04-.33,1.81-.93,2.36l.27.17-2.09,1.71c.44-.99-4.24,4.62-7.81,7.59-.88.71-2.42,1.82-3.68,2.75l-1.32,1.04c.17,0,.27.05.38.05h.38c1.21.11,5.94,2.25,5.94,2.25,1.15.05,3.9.5,3.9.5.28-.06.6-.11.93-.11.99,0,2.31.22,3.58.44,3.52.55,4.34.17,4.34,1.87,0,.83-1.1,2.37-1.1,2.37.05.05,2.31.6,4.29.77.06-.05.06-.17.11-.33l.05-.27c.06.11,1.43.16,2.86.22ZM331.25,431.84c2.86,0,5.83.99,5.83,2.25,0,.99-.66,1.38-2.14,1.38-2.36,0-7.09-1.59-7.09-2.25,0-.44.17-.88.88-1.16.99-.22,1.81-.22,2.53-.22Z"/>
    <path class="cls-5" d="M344.07,428.15c0,.38-.33,1.65-.83,1.59-.22,1.81-6.76,4.29-7.37,4.29,0-.06.05-.11.28-.22-1.98.99-1.38,1.87-4.29,2.53-1.87.44-5.39,2.36-6.21,2.42-.77.17-3.08,1.87-4.34,1.92-.11.55-.93.88-1.54.99.06.05.17.11.17.11,0,0-5.77.66-7.42.66-.99,0-1.43-.27-1.43-.66.05-1.16,3.19-3.58,5.99-4.56,1.71-.61,11-5.17,15.18-7.15l1.59-.77c.99-.83-1.04-1.76-2.31-2.31-.82-.33-1.59-.66-2.09-.94-.55-.33-.99-.44-1.48-.55-1.54-.38-1.92-.99-1.98-1.38-.28.06-.55.06-.88.06-1.43,0-2.09-.44-2.25-.99-.66-.33-2.2-1.04-2.58-1.37l-.6-.6c-.61-.83-1.65-1.71-1.65-2.47,0-.71.66-1.38.66-2.04,0-1.54,5.22-5.11,6.71-6.1l.17-.05c.61-.38,1.43-.83,2.2-1.1l.66-.38c.6-.33,1.76-1.76,1.81-1.71,0,0,1.32.05,1.48.6.06-1.04.88-1.43,1.82-1.65,3.52-1.21,10.12-4.4,13.36-4.4,1.87,0,2.8,1.1,2.8,1.92,0,1.26-2.97,2.14-2.97,3.08,0,.72-4.12,3.63-5.39,3.79-.33.05-.6.11-.83.11-.05-.17-.17-.33-.33-.55.11.22.22.39.22.55h-.33c-.77,0-1.1-.17-1.1-.5s.44-.88,1.1-1.49l-.83.28c-.17.55-.99,1.87-4.07,2.47-2.53.71-5.44,1.81-8.47,5.06.5.22.99.66,1.43,1.1,1.04.88,2.09,1.26,3.35,2.09l.83.55.88.38c.77.33,1.48.66,1.48,1.26,0,.17-.05.39-.22.66.11-.17.33-.22.55-.22.99,0,4.12,1.65,6.54,2.91,1.98,1.1,2.53,2.04,2.53,2.75ZM340.5,411l-.11-.17c.11.05.11.11.11.17Z"/>
    <path class="cls-5" d="M379.77,407.42c0,.61-.33,1.26-1.04,1.43v.33s-1.15.5-1.71.5c-.33,0-.6,0-.82-.05-.17.17-.5.33-.88.33v-1.92c-.28.17-1.71.93-2.25,1.15-.22.61-.55,1.04-1.43,1.04-1.1,0-1.76-.27-2.09-.33-.99.11-3.41.5-6.27.5-.88,0-1.65-.11-2.25-.11h-.55v.22c0,.71-.55.99-.55,1.38.22.33.5.88.5,1.54s-.38,1.16-.38,1.71v.5c.05.38.17.77.17.83,0,.27-.66,2.36-.83,2.36.33.27.71.6.71,1.48,0,.28-.66.44-.66,2.31,0,1.15.88,1.87.88,2.58,0,1.32-1.43,1.49-1.37,2.53.17.33.27.6.27,1.04,0,.22-.17.88-.17.88l.06.22c1.26,0,1.26.66,1.26,1.32v.55c0,.11.05.17.05.22,0,1.04-.6,1.32-1.65,1.48l-.44.05-.22.17c-.22.06-.44.22-.66.22-.05,0-.11,0-.17-.06v.28c0,1.1-1.04,1.81-1.59,1.81-.5,0-.66-.05-.77-.05,0,0-.55.77-1.76,1.76l-1.43-1.04.71-1.92c0-1.71.55-3.3.55-4.29v-.33c0-.11-.05-.22-.05-.44,0-.6.05-1.48.17-2.14.11-.88.22-1.04.22-1.04v-.99c0-.49.05-.88.22-1.15-.33-.33-.44-.83-.44-1.21v-.93c0-.66.11-1.54.99-1.87l-.38-.5c-.71-.88-1.76-1.43-1.76-1.76,0-.44,1.54-.05,1.65-.88l-.49-.27,1.1-.22c-.33-.27-1.26-1.37-1.26-1.54,0-.22.99-.94.99-1.49,0-.17-.05-.38-.05-.55v-1.54c-2.64.11-4.12.5-4.84.71-.77.28-5.55,1.49-6.65,1.49-.61,0-1.04,0-1.16-.55-1.21.33-2.42.55-2.97.55-.99,0-2.03-.44-2.03-1.32,0-.55.27-.99,1.1-1.26l.5-.22c.05-1.32,1.26-1.38,2.42-1.38.22,0,.33.05.44.05-.05-.16-.05-.33-.05-.38,0-1.38,2.03-1.43,3.85-1.43.33,0,.61.11.72.44.55-.66,2.2-1.21,3.9-1.21.88,0,1.7.05,2.14.05h.77c.55-.55,2.31-.83,3.13-.88.17-.17.44-.27.77-.33.88-.05.99-.11.99-.11l.05.33c.28-.27.66-.44,1.32-.44l2.09.17c.33,0,.6-.05.93-.17.61-.22,1.49-.5,2.53-.5.44,0,.72.17,1.1.22,0-.05,4.84-.6,5-.6l-1.48,1.32c2.36-.93,5.66.55,5.66.28,0-.22-.66-.5-1.49-.77.28-.11.55-.28.88-.28.39,0,.88.22,1.27.44.22-.33.55-.61,1.1-.61.27,0,.55.22.99.22l.49-.17,1.71.88.38.44s.33.5.33.93ZM341.93,411.49l1.92-.88c-.77.33-2.09.61-2.09.83,0,.05.05.05.17.05ZM357.33,422.16l-.39-.5s-.44.28-.44.61c.05-.11.17-.22.38-.22s.33.06.44.11Z"/>
    <path class="cls-5" d="M396.76,429.03c0,.6-.05,1.16-.28,1.43.5.55.66,1.04.66,1.49,0,.82-.55,1.43-.99,1.76l-.55.71c-.49.66-1.1,1.43-1.65,1.59h-.44c.55.55.99,1.04.99,1.04l-2.64.99c-.77-.22-1.21-1.21-1.21-2.03,0-.5.17-.94.55-1.1-.77-.77-.82-2.2-.82-2.64,0-.17,0-.28.05-.28l1.1-.99c0-.22-.33-5.17-1.81-5.17v2.03c-.28,0-.88,0-1.26-1.1-.55-1.48-.33-1.87-1.1-1.87-.55,0-.94.49-1.59.6-2.15.38-.94,1.49-4.34,1.59-1.49.05-1.71.22-1.82.38l-.33.28c-.5.44-1.49.83-1.49.83-.05.55-.22,1.21-.44,1.54-.17.28-.66.66-.66.66.05.28.05.55.05.88,0,1.87-2.64,2.37-2.75,2.47-1.1-.38-2.31-1.26-2.31-2.36,0-.77,1.54-2.09,1.54-2.75,0-.17-.16-.17-.16-1.04,0-1.54,2.03-2.75,2.42-3.46.33-1.21,2.75-5.88,2.75-6.1,0-.38-.11-.71-.11-.71,0,0,.55-1.1,1.1-1.76.49-.88.16-2.31,1.1-2.92.55-.33,1.76-2.69,2.14-2.69,0-.44,1.43-2.8,2.03-2.8-.05,0-.22,0-.22-.28.11-.6.38-1.32.77-1.76.55-.66,1.1-.93,1.65-.93.44,0,.83.17,1.15.38.11.05,1.59-.5,1.59-.5,0,0,.44,2.8.44,3.52.27.17,1.48,1.1,1.48,1.82,0,1.81.17,2.47.17,2.47,0,0,1.27,1.04,1.27,1.54,0,.22-.39,1.04-.39,1.43v.22c.66.66,1.16,1.98,1.16,2.91,0,.22,0,.39-.05.55,1.1.44,1.81,1.1,1.81,1.81,0,.6-.71.93-.93,1.1l.77.17c0,.22,0,2.42.93,2.86,0,0,.66,2.47.66,4.18ZM386.31,420.62c0,.11.05.33.17.5-.11-.44-.11-1.48-.11-2.25v-.93c-.88-.77-.93,0-1.81-2.42-.28.83-.71,1.87-.71,1.87l-.88.27c-.06.22.11.94-1.49,1.87.38-.17.55-.22.55-.22v.44c0,.28,0,.55-.11.88l-.44.77c-.22.44-.55.99-.83,1.32,1.49-.33,1.54-.17,2.25-.55-.05-.11.66-2.31.66-2.31l1.1,1.21c.33-.33,1.54-.33,1.65-.44ZM390.77,425.4c.11,0,.28-.05.44-.22l-.38-.17c-.27.06-.44.11-.44.17.05.11.22.22.38.22Z"/>
    <path class="cls-5" d="M440.54,442.12c0,.44-.27,1.54-1.48,1.54-.88,0-1.92-1.04-1.92-1.04-.33-.22-.61-.5-.61-1.04,0-.33.06-.55.17-.71-1.15,0-2.2.66-3.41.66-.5,0-1.92,0-1.92-.66,0,0-1.59.17-2.14.17-1.26,0-2.8-.27-4.18-1.15-.99-.61-7.42-4.34-8.74-4.62-.77-.38-2.53.11-3.19-1.1-.33-.55-.66-.93-1.04-1.1-.17.05-.6.11-.66.17-1.04,0-2.8-1.82-3.25-1.82-1.26,0-2.09-.82-3.96-1.54-.28.5-.71,1.15-.83,1.21.22.38.28.38.28.38.22.38.38.83.38,1.54s-.55,1.04-.55,1.54c.22.28.38.61.38,1.04,0,.94-.88,1.49-1.54,1.87.05-.05.11-.05.11-.22-.11.11-.17.27-.17.33-.33.77-.88,1.92-1.71,1.92-.11,0-.28-.05-.38-.11h-1.1l-.28-2.47.28-1.32.33-2.58-.5-1.82.6-2.2s-.33.33-.33.93c-.17-.33-.33-.77-.33-1.38,0-.33.06-.66.22-.99l-.39-.06c-.27-.05-.33,0-1.04-.44h-.66c-1.16,0-2.42-.17-2.42-1.59,0-.94.93-1.59,1.71-1.92l.38-.82c.05,0,1.65-.55,2.8-.88l.55-2.8.88,1.1c-.33-.66-1.16-2.8-1.16-3.02v-.55c-1.26-.99-3.9-4.62-3.9-6.54,0-.88.38-2.14,1.32-2.97.99-.88,3.96-2.47,4.73-2.47.55,0,.99.33,1.15.71.5,0,1.54-.22,2.31-.22,1.71,0,5.66.99,5.72.99,0,0,.38-.27.99-.27.94,0,1.32.77,2.42,1.32-.05-.11-.05-.27-.05-.38,1.76,0,1.92,1.16,3.24,1.49l2.09.99v.88c.17.17.28.22.38.28l.61.99c0,.99.33,1.6.33,2.31,0,2.64-1.38,3.13-2.58,3.63-1.26.55-2.31,3.02-4.01,3.02-4.01,0-1.15,1.32-5.72,2.97-.22.17-.44.17-.66.17h-.33c-.17,0-.33,0-.44.06-1.1.77-1.59.93-2.03.93l-.55.22.55.28c.38.27.83.55.99.6.11,0,.33-.05.55-.05.99,0,3.74,2.47,4.84,3.02.71.38,1.04.55,1.04,1.26,0,.05-.05.11-.05.17,0,.22,5.72,1.1,5.77,1.1l2.2,1.21c1.26.71,2.8,1.76,3.74,2.04.06,0,.11.05.22.11,1.15.44,4.51,1.65,5.72,1.87,3.96,0,9.13,1.04,9.13,3.19,0,.5-.44.83-1.1,1.04.6.05,1.21.17,1.21.17l.66.38s.33.5.33,1.1ZM399.9,414.19h-.33l.17.17.17.38c0-.28.06-.44,0-.55ZM400.78,412.15c.39-.6.99-1.04,1.87-1.04h.44l1.16-.5c-.55,0-1.76.44-2.2.44h-.33c-.11,0-.22-.05-.39-.05-.27,0-.55.82-.55,1.15ZM407.27,414.84c-.22,2.31-1.65,3.41-1.71,3.68v.33c0,.11.06.17.06.28s0,.22-.06.38l.99-.55c.61-.5,1.54-1.1,2.64-1.1.11,0,.38.05.61.05.6-.71,1.65-1.92,2.97-1.92.39,0,1.43-.93,1.65-1.48-1.04,0-1.54-.72-1.98-1.38-.11-.11-.17-.22,0-.33-.77,0-2.92-.66-2.92-.66l-2.04-.6c0,.27-.05,1.81-.22,3.3ZM416.4,423.92c.99,0,1.48.6,1.48,1.38,0,.5-.77,1.92-1.65,1.92s-1.76-1.1-1.76-1.82c0-.55.22-.99.93-1.26.22-.17.66-.22.99-.22Z"/>
  </g>
  <path class="cls-1" d="M438.48,444.62c.24.08.46.05.7,0s.46-.11.67-.23c.17-.09.33-.18.49-.28.07-.05.14-.1.2-.16.1-.11.19-.24.24-.38l.02-.31c-.02-.23-.08-.45-.17-.66-.17-.48-.4-.94-.69-1.36-.24-.35-.49-.69-.78-1-.16-.19-.35-.35-.55-.48-.14-.12-.29-.19-.47-.23-.31-.07-.6-.08-.91-.01-.18.04-.25.15-.34.31-.05.08-.04.17-.05.27-.03.38.11.8.26,1.14.35.77.79,1.5,1.38,2.11.21.23.46.43.73.6.17.12.34.14.52.07.17-.12.3-.31.4-.5.11-.21.11-.48.11-.71-.02-.23-.08-.45-.17-.66-.09-.27-.2-.54-.35-.79-.15-.3-.33-.58-.53-.84-.17-.26-.37-.5-.59-.73l-.38-.36c-.19-.17-.4-.29-.64-.35l-.23.04c-.14.14-.19.31-.15.5,0,.03,0,.06,0,.09l.02-.31c-.01.15-.06.29-.15.41l.13-.19c-.06.08-.13.15-.21.2l2.63,2.78v-.02c.05.16.1.33.16.49v-.02c.02.14.05.28.07.42v-.03c0,.1-.02.21-.02.31,0-.05.02-.08.04-.12l-.13.19c.05-.07.13-.1.21-.11l-.23.04c.22-.03.46,0,.68.05l-2.64-4.04s-.04.08-.06.12l.13-.19c-.14.19-.36.3-.56.41-.24.13-.48.25-.75.31l.23-.04c-.2.04-.4.03-.59-.03-.15-.03-.24.02-.29.14-.1.11-.13.25-.08.41.02.23.08.45.17.66.09.27.2.54.35.79.31.56.67,1.12,1.12,1.57l.38.36c.19.17.4.29.64.35h0Z"/>
  <path class="cls-1" d="M440.19,443.51c1.09,0,2.48-.6,3.26-1.36.68-.67.48-1.17-.49-1.17-1.09,0-2.48.6-3.26,1.36-.68.67-.48,1.17.49,1.17h0Z"/>
  <path class="cls-1" d="M442.69,444.38c1,0-.96-4.27-2.28-4.27-1,0,.96,4.27,2.28,4.27h0Z"/>
  <path class="cls-1" d="M442.46,444.42c1,0-.96-4.27-2.28-4.27-1,0,.96,4.27,2.28,4.27h0Z"/>
  <path class="cls-1" d="M442.13,444.45c1,0-.96-4.27-2.28-4.27-1,0,.96,4.27,2.28,4.27h0Z"/>
  <path class="cls-1" d="M439.54,443.58c1.09,0,2.48-.6,3.26-1.36.68-.67.48-1.17-.49-1.17-1.09,0-2.48.6-3.26,1.36-.68.67-.48,1.17.49,1.17h0Z"/>
  <path class="cls-1" d="M439.94,440.31c-.11-.05-.23-.09-.34-.13-.02,0-.04-.01-.07-.02-.04-.01-.09-.02-.13-.02-.16-.01-.32.03-.47.06-.17.04-.32.14-.43.28-.11.09-.16.21-.14.35-.03.19,0,.38.07.57.07.27.17.52.3.76.13.3.29.58.47.84l.39.54c.23.3.49.57.77.81l.35.24c.17.12.34.14.52.07.12-.16.29-.26.48-.29l-.23.04c.13-.02.26-.01.38.03l-.3-.11s.03.01.05.02c.13.1.27.13.41.09.13,0,.21-.07.24-.21.04-.18.03-.35-.02-.52-.04-.24-.11-.48-.21-.7l-.26-.54c-.21-.39-.45-.76-.73-1.11l-.39-.46c-.21-.23-.46-.43-.73-.6h0Z"/>
  <path class="cls-1" d="M441.35,442.3c.06-.13.13-.25.13-.4,0-.22-.02-.44-.06-.65-.05-.29-.14-.57-.26-.83-.07-.14-.18-.22-.33-.24-.19-.07-.38-.1-.59-.07-.28.01-.55.06-.81.14-.32.07-.62.17-.92.3l-.6.28c-.34.17-.65.39-.93.64l-.29.32c-.14.16-.19.34-.14.55.17.38.29.81.31,1.23v-.25c0,.15-.08.26-.14.4-.05.15-.02.27.1.35.09.13.23.19.4.19.23.03.46.03.69-.02.29-.03.57-.09.85-.18.61-.19,1.23-.45,1.74-.82l.41-.32c.2-.16.35-.37.44-.61h0Z"/>
  <path class="cls-1" d="M241.73,443.53c-.08,0-.16-.02-.25-.04l.64.17c-.08-.02-.16-.05-.23-.09l.6.28c-.09-.05-.18-.1-.27-.16l.51.36c-.21-.15-.4-.33-.58-.52l.39.41c-.18-.19-.36-.38-.5-.6l.26.44c-.05-.09-.1-.18-.13-.29l.11.44c-.02-.11-.03-.21-.02-.32l-.06.43c.03-.18.09-.34.16-.51.11-.27.15-.53.18-.83.06-.73-.41-1.42-.93-1.87-.68-.59-1.64-.95-2.54-.94-.56,0-1.22.12-1.62.57-.43.48-.33,1.15-.31,1.75l.11.44c.1.25.25.46.45.64.34.36.82.7,1.31.84.62.18,1.21.32,1.86.18.33-.07.67-.22.91-.47.29-.31.36-.65.37-1.06s0-.81,0-1.22c0-.48-.42-1-.75-1.29-.46-.4-1.15-.72-1.75-.81-.92-.13-2.31.04-2.31,1.24,0,.43.03.87,0,1.3l.06-.43c-.01.05-.02.09-.05.14l.23-.37-.03.03.37-.27-.03.02.48-.17h-.04c.61.06,1.21.12,1.82.18h-.04c.62.63,1.24,1.27,1.86,1.91,0-.28-.04-.57-.01-.85l-.06.43s.02-.07.04-.1l-.23.37.03-.03-.37.27.04-.02-.48.17h.04c-.19,0-.37.03-.56.05.03,0,.06,0,.1,0l-.62-.05h.05c-.21-.05-.43-.11-.64-.16l.04.02-.6-.28.04.02-.51-.36s.05.04.07.06l-.39-.41s.04.05.06.07l-.26-.44c.03.06.05.11.07.18l-.11-.44c.02.12.03.23,0,.35l.06-.43c-.03.18-.11.34-.17.51-.11.28-.17.61-.16.91,0,.21.07.43.13.63.03.09.07.18.11.26.16.3.33.57.55.82.34.38.7.79,1.11,1.1.5.38.89.6,1.46.85.18.08.36.12.55.17s.37.11.57.13c.55.05,1.14.1,1.65-.18.37-.2.71-.61.66-1.07-.05-.51-.36-.97-.75-1.29-.49-.39-1.12-.75-1.75-.81h0Z"/>
  <path class="cls-1" d="M240.71,442.93c1.09,0,2.48-.6,3.26-1.36.68-.67.48-1.17-.49-1.17-1.09,0-2.48.6-3.26,1.36-.68.67-.48,1.17.49,1.17h0Z"/>
  <path class="cls-1" d="M241.22,440.27c-.27-.25-.54-.51-.82-.74-.44-.36-.88-.63-1.42-.79-.18-.02-.3.05-.35.23-.03.12-.08.23-.15.34l.13-.19c-.17.24-.42.39-.71.44l.23-.04c-.16.03-.32.02-.47-.03l.3.11s-.05-.02-.07-.03c-.25-.11-.52-.2-.65.12-.04.18-.03.35.02.52.04.24.11.48.21.7.25.59.58,1.16.99,1.66l.39.46c.21.23.46.43.73.6.23.1.47.2.73.18.21-.01.44-.06.64-.15.33-.16.6-.52.68-.87l-.35.23s.06.02.09.03l-.3-.11c.17.06.32.15.47.25l-.35-.24c.37.27.7.6,1.04.91.15.14.62.47.87.31s.13-.72.07-.92c-.33-1.14-1.07-2.17-1.93-2.96h0Z"/>
  <path class="cls-5" d="M368.37,410.23c2.1-.16,4.2-.17,6.3-.04.62.04,1.34-.31,1.77-.73s.76-1.15.73-1.77c-.06-1.42-1.1-2.41-2.5-2.5-2.1-.13-4.21-.12-6.3.04-.67.05-1.28.25-1.77.73-.43.43-.76,1.15-.73,1.77s.24,1.32.73,1.77,1.11.78,1.77.73h0Z"/>
  <g>
    <path class="cls-1" d="M275.33,415.16c.06.24.27.41.48.55s.44.24.61.42c.26.28.33.68.37,1.05.09.77.13,1.54.11,2.32,0-.74-.16-1.48-.37-2.19-.13-.45-.28-.91-.56-1.29-.17-.22-.38-.41-.53-.64-.18-.27-.27-.6-.45-.87-.13-.19-.3-.34-.47-.49-.45-.4-.9-.81-1.46-1.02"/>
    <path class="cls-1" d="M274.13,415.49c.2.57.55.97,1.05,1.29.07.05.15.09.23.14.05.03.09.06.14.08l-.08-.07c.09.09.1.1.04.03-.06-.07-.05-.06.01.04,0,0-.07-.22,0,.04.02.09.03.17.05.26-.04-.21,0-.06,0,.07.02.23.04.47.06.71.03.47.04.94.03,1.42h2.5c-.03-1.6-.44-3.43-1.53-4.64-.05-.05-.09-.1-.14-.16-.08-.09.08.16-.02-.05-.07-.15-.14-.29-.21-.44-.18-.38-.45-.72-.76-1-.64-.59-1.29-1.09-2.1-1.42-.61-.25-1.4.27-1.54.87-.17.73.22,1.27.87,1.54-.12-.05-.09-.04,0,.01.06.04.13.07.19.11s.12.08.19.12c.08.06.11.09.02,0,.23.19.46.39.68.6.05.05.11.11.16.16-.08-.08-.05-.08,0,.02.07.13.13.26.19.39.16.34.37.64.62.92.05.05.09.1.14.15.02.02.15.19.07.08s.04.07.05.1c.04.06.06.13.1.19.09.15-.05-.17,0,0,.02.07.05.14.07.21.05.14.09.28.13.43.09.32.17.64.23.97.02.08.03.16.04.24.04.2,0-.17,0,.04,0,.19.03.37.03.56.01.65.57,1.28,1.25,1.25s1.24-.55,1.25-1.25c.02-.99,0-2.03-.21-3.01-.1-.51-.36-1.01-.75-1.35-.2-.18-.42-.32-.65-.46-.05-.03-.31-.22-.06-.03-.16-.13.04.09.07.17-.21-.62-.87-1.09-1.54-.87-.61.2-1.1.88-.87,1.54h0Z"/>
  </g>
  <g>
    <path class="cls-1" d="M263.91,413.75c1.64-.69,3.45-1.17,5.19-.8.45.1.89.25,1.32.4,1.19.42,2.38.84,3.58,1.26"/>
    <path class="cls-1" d="M264.25,414.96c1.38-.58,3.01-1.14,4.52-.8,1.66.38,3.29,1.1,4.9,1.67.64.22,1.37-.25,1.54-.87.19-.69-.23-1.31-.87-1.54-.94-.33-1.88-.66-2.82-1-.8-.28-1.59-.6-2.43-.74-1.89-.3-3.75.14-5.49.86-.62.26-1.07.83-.87,1.54.16.59.91,1.13,1.54.87h0Z"/>
  </g>
  <g>
    <path class="cls-1" d="M203.64,410.1c-.67.36-.91,1.35-.47,1.98.1.15.28.28.44.2.17-.08.16-.35.03-.48s-.34-.16-.52-.17c-.38-.03-.77-.02-1.15.03.19.22.41.4.66.55"/>
    <path class="cls-1" d="M203.01,409.02c-.16.09-.3.2-.44.32-.07.06-.13.12-.18.18-.11.13-.22.27-.31.42-.09.16-.16.34-.23.51-.1.25-.13.53-.15.8s.02.54.09.79c.1.36.28.66.52.95.38.46,1.05.68,1.62.5.64-.19,1.08-.8,1.06-1.47-.01-.57-.34-1.13-.85-1.39-.4-.21-.83-.25-1.28-.26-.3,0-.6,0-.9.04-.22.03-.43.06-.63.17-.24.14-.41.35-.51.6-.06.1-.08.2-.09.32-.03.11-.03.22,0,.33,0,.11.03.22.09.32.05.15.14.29.26.4.26.29.58.54.91.75.27.17.66.21.96.13s.6-.3.75-.57c.15-.29.23-.64.13-.96s-.29-.57-.57-.75c-.08-.05-.17-.11-.25-.17l.25.2c-.15-.12-.28-.24-.41-.38l-.88,2.13c.42-.05.86-.07,1.29-.02l-.33-.04c.08.01.15.03.23.06l-.3-.13s.08.04.11.06l-.25-.2s.06.05.08.08l-.2-.25s.03.04.04.07l-.13-.3s.02.07.03.1l-.04-.33s0,.05,0,.08l.04-.33s0,.05-.02.07l.13-.3s-.02.04-.03.06l.2-.25s-.02.02-.03.03l.25-.2s-.03.02-.04.03l.3-.13s-.04.02-.06.02l.33-.04s-.04,0-.06,0l.33.04s-.06-.01-.09-.03l.3.13s-.06-.03-.09-.05l.25.2s-.09-.08-.12-.12l.2.25c-.06-.08-.1-.16-.14-.24l.13.3c-.05-.11-.08-.22-.09-.34l.04.33c-.02-.13-.02-.26,0-.38l-.04.33c.02-.14.06-.27.11-.4l-.13.3c.05-.11.11-.21.18-.31l-.2.25c.07-.09.14-.16.23-.23l-.25.2c.05-.04.1-.07.16-.1.27-.15.49-.45.57-.75s.05-.7-.13-.96-.43-.5-.75-.57-.66-.04-.96.13h0Z"/>
  </g>
  <path class="cls-5" d="M403.85,409.32c-1.47.03-2.97.5-4.15,1.39-.27.2-.48.41-.57.75-.08.3-.05.7.13.96s.43.5.75.57.7.07.96-.13c.4-.3.84-.55,1.3-.75l-.3.13c.5-.21,1.02-.35,1.56-.42l-.33.04c.22-.03.44-.04.66-.05.65-.01,1.28-.56,1.25-1.25s-.55-1.27-1.25-1.25h0Z"/>
  <path class="cls-5" d="M400.7,414.8c1.61,0,1.61-2.5,0-2.5s-1.61,2.5,0,2.5h0Z"/>
  <path class="cls-5" d="M400.35,415.33c1.61,0,1.61-2.5,0-2.5s-1.61,2.5,0,2.5h0Z"/>
  <path class="cls-5" d="M390.03,424.74c.07.01.14.03.21.04.1.03.09.03-.01-.01-.1-.05-.11-.05-.02,0,.06.03.13.09.19.11-.14-.12-.18-.15-.11-.08.03.02.05.05.08.07l.05.05c.09.1.07.07-.06-.08,0,.05.09.15.11.19.11.18-.06-.2-.03-.07.02.1.08.38.03-.01l.37-.88c.17-.16.37-.24.61-.24.22.04.27.05.14.01.18.05.35.16.44.33.06.18.07.2.03.07-.03-.14-.02-.11.01.09,0,0,0-.22,0-.25.03-.48.08-.97.12-1.45.08-.98.17-1.95.25-2.93.06-.65-.61-1.28-1.25-1.25-.72.03-1.19.55-1.25,1.25-.08.96-.16,1.92-.25,2.88-.09,1.03-.39,2.33.4,3.17.45.47,1.16.71,1.8.52.47-.14.89-.49,1.03-.97.09-.33.03-.7-.08-1.02-.33-.94-1.15-1.77-2.16-1.93-.34-.05-.65-.06-.96.13-.26.15-.51.45-.57.75-.14.6.18,1.43.87,1.54h0Z"/>
  <path class="cls-5" d="M355.96,421.36c.17,1.39.1,2.77-.26,4.12s-.95,2.56-1.54,3.8l2.28.96c.19-1.12.38-2.23.58-3.35.16-.9.29-1.77.85-2.5l-2.28-.96c-.56,1.47-.85,3.05-.87,4.62,0,.3.04.62,0,.91-.05.18-.07.22-.03.14.03-.07.01-.04-.05.08.1-.15-.1.12-.13.15-.46.47-.95.85-1.35,1.38s-.08,1.4.45,1.71c.64.38,1.3.09,1.71-.45-.09.11.17-.16.21-.19.12-.11.24-.21.36-.32.2-.18.4-.36.57-.56.58-.68.78-1.44.77-2.32-.01-1.56.22-3.03.78-4.5.22-.57-.19-1.26-.72-1.47-.63-.25-1.17,0-1.56.51-.65.84-.9,1.9-1.08,2.92-.21,1.18-.41,2.35-.61,3.53-.11.61.11,1.23.72,1.47.54.22,1.29.06,1.56-.51.68-1.42,1.37-2.87,1.79-4.4s.55-3.19.35-4.78c-.08-.67-.52-1.25-1.25-1.25-.61,0-1.33.58-1.25,1.25h0Z"/>
  <path class="cls-5" d="M338.51,410.01c.53.61,1.22,1.03,1.96,1.33.28.11.57.19.87.24.25.04.49.07.74.08.18,0,.35-.02.53,0l-.33-.04s.08.02.12.04l-.3-.13.04.02-.25-.2s.05.04.07.06l-.2-.25s.04.05.05.08l-.13-.3v.04c0-.11-.02-.22-.03-.33,0,.03,0,.06,0,.09l.04-.33-.02.04.13-.3-.02.03.2-.25-.02.02.25-.2-.03.02.3-.13s-.04.01-.06.01l.33-.04h-.03c.11.01.22.03.33.04-.02,0-.04,0-.06-.02l.3.13h-.03c.08.05.17.12.25.18l-.02-.02.2.25-.02-.02.13.3v-.03c0,.11.02.22.04.33v-.03c-.02-.65-.56-1.28-1.25-1.25s-1.27.55-1.25,1.25c.03.9.86,1.55,1.75,1.34.77-.19,1.22-.99,1.02-1.75-.19-.72-.85-1.13-1.56-1.17-.28-.02-.56,0-.85-.03l.33.04c-.33-.05-.64-.14-.95-.26l.3.13c-.3-.13-.59-.3-.85-.5l.25.2c-.19-.15-.36-.31-.51-.49-.2-.23-.59-.37-.88-.37s-.67.14-.88.37-.38.55-.37.88.14.62.37.88h0Z"/>
  <g>
    <path class="cls-5" d="M355.63,428.14c.21,2.26-.18,4.57-1.13,6.63-.22.48-.47.95-.6,1.46.41.27.88-.23,1.12-.66.6-1.11,1.21-2.24,1.49-3.48.17-.78.21-1.57.24-2.37.09-1.93.17-3.85.26-5.78.01-.25-.03-.56-.26-.63-.99,1.01-1.1,2.55-1.2,3.95s-.34,2.97-1.45,3.83c0-1.75.42-3.5,1.21-5.06"/>
    <path class="cls-5" d="M354.38,428.14c.11,1.33.04,2.65-.27,3.95s-1.03,2.5-1.41,3.81c-.14.49.08,1.18.57,1.41,1.6.75,2.55-.57,3.22-1.84.74-1.42,1.27-2.83,1.43-4.43.15-1.52.16-3.05.23-4.58.03-.75.07-1.51.1-2.26s-.13-1.54-.87-1.96c-.47-.26-1.14-.22-1.51.2-1.12,1.22-1.4,2.76-1.53,4.35-.1,1.21-.11,2.59-1.12,3.43l2.13.88c.02-1.54.36-3.05,1.03-4.43s-1.45-2.71-2.16-1.26c-.88,1.79-1.35,3.7-1.38,5.69-.01,1.16,1.34,1.54,2.13.88,1.22-1.01,1.59-2.57,1.76-4.06.14-1.21,0-2.76.89-3.72l-1.51.2.12.07-.45-.45c-.02-.27-.03-.3-.03-.07l-.02.38-.04.88c-.02.5-.04,1.01-.07,1.51-.05,1.12-.09,2.25-.15,3.37-.05,1.01-.18,1.97-.57,2.92-.18.45-.41.88-.63,1.31-.1.18-.29.42-.34.63-.07.33-.26.07.1.1l.63.17-.14-.06.57,1.41c.2-.69.55-1.32.82-1.98s.48-1.35.64-2.05c.32-1.44.43-2.92.31-4.39-.06-.67-.53-1.25-1.25-1.25-.63,0-1.31.57-1.25,1.25h0Z"/>
  </g>
  <g>
    <path class="cls-1" d="M188.01,409.49c.63-.09,1.28-.08,1.91.04"/>
    <path class="cls-1" d="M188.34,410.7s.05,0,.07-.01l-.33.04c.5-.07,1.01-.07,1.51,0l-.33-.04c.11.01.22.03.33.05.17.05.33.06.5.02.17,0,.32-.06.46-.15.26-.15.51-.45.57-.75.07-.32.06-.68-.13-.96-.17-.26-.43-.51-.75-.57-.42-.08-.85-.14-1.28-.15s-.86.04-1.29.11c-.16.04-.3.11-.43.22-.14.09-.24.21-.32.35-.16.27-.22.66-.13.96s.29.59.57.75l.3.13c.22.06.44.06.66,0h0Z"/>
  </g>
  <path class="cls-1" d="M180.84,425.18c1.61,0,1.61-2.5,0-2.5s-1.61,2.5,0,2.5h0Z"/>
  <path class="cls-1" d="M200.42,414.94c1.61,0,1.61-2.5,0-2.5s-1.61,2.5,0,2.5h0Z"/>
  <g>
    <path class="cls-1" d="M200.83,427.49c.21,3.35.15,6.72-.17,10.07-.02.16-.03.33.03.48.19.51,1,.42,1.33-.01s.36-1.01.51-1.53c.18-.63.56-1.19.78-1.8.22-.63.27-1.3.32-1.97.24-3.59.35-7.2.32-10.8,0-.19,0-.39-.06-.57-.08-.29-.28-.53-.44-.78-.73-1.15-.75-2.64-1.46-3.81-.43.15-.51.72-.51,1.18,0,2.63,0,5.27-.01,7.9"/>
    <path class="cls-1" d="M199.58,427.49c.12,1.96.16,3.92.1,5.88-.03.84-.07,1.68-.13,2.52-.05.76-.31,1.74-.07,2.49.41,1.27,1.95,1.58,3,.9.64-.41.92-1.1,1.1-1.8s.46-1.32.75-1.99c.64-1.5.59-3.23.67-4.83.1-1.8.16-3.6.18-5.4.02-1.48.37-3.44-.33-4.8-.38-.73-.7-1.3-.94-2.11s-.46-1.51-.85-2.21c-.33-.59-1.14-.78-1.71-.45-1.45.83-1.13,2.72-1.13,4.13,0,2.01,0,4.02,0,6.03,0,1.61,2.5,1.61,2.5,0,0-1.46,0-2.91,0-4.37,0-.69,0-1.39,0-2.08,0-.35,0-.69,0-1.04,0-.29.16-.67-.11-.52l-1.71-.45c.55,1,.67,2.17,1.15,3.21.21.46.54.84.64,1.32.13.64,0,1.43,0,2.08-.02,2.77-.11,5.54-.29,8.31-.08,1.24-.37,2.12-.85,3.25-.13.3-.6,1.27-.47,1.56l.82.44.04-.42c.1-.29.06-.74.08-1.05.21-2.86.21-5.74.04-8.6-.1-1.6-2.6-1.61-2.5,0h0Z"/>
  </g>
  <path class="cls-5" d="M399.18,415.37c-.14,1.56.16,3.09.32,4.63.02.17.03.34.04.52,0,.07,0,.15,0,.22.02-.1.01-.08-.01.06-.05.16-.09.32-.16.48.08-.19-.07.15-.08.16-.33.71-.63,1.37-.64,2.17-.01.65.58,1.28,1.25,1.25s1.24-.55,1.25-1.25c0-.15,0-.17-.01-.04.01-.08.03-.16.06-.24.02-.06.14-.38.11-.32s.12-.25.15-.31c.1-.21.19-.43.29-.65.28-.67.35-1.34.28-2.05-.16-1.54-.47-3.07-.32-4.63.06-.65-.62-1.28-1.25-1.25-.73.03-1.19.55-1.25,1.25h0Z"/>
  <g>
    <path class="cls-1" d="M204.99,410.26c.03.44.02.88-.05,1.32"/>
    <path class="cls-1" d="M203.74,410.26c.03.41.02.81-.03,1.21l.04-.33s0,.07-.01.1c-.05.17-.06.33-.02.5,0,.17.06.32.15.46.08.15.19.26.32.35.12.11.26.19.43.22l.33.04c.23,0,.44-.06.63-.17l.25-.2c.15-.16.26-.34.32-.55.08-.55.14-1.09.09-1.65,0-.17-.03-.33-.11-.48-.05-.15-.14-.29-.26-.4-.11-.12-.25-.21-.4-.26-.15-.08-.31-.11-.48-.11l-.33.04c-.21.06-.4.17-.55.32-.21.23-.39.56-.37.88h0Z"/>
  </g>
  <path class="cls-1" d="M241.22,426.22c1.61,0,1.61-2.5,0-2.5s-1.61,2.5,0,2.5h0Z"/>
  <g>
    <path class="cls-1" d="M322.36,428.37c-1.41.65-2.95,1.03-4.5,1.11-.62.03-1.24.02-1.86,0-1.04-.02-2.12-.05-3.08-.45"/>
    <path class="cls-1" d="M321.09,426.21c-.47.21.49-.18-.12.05-.19.07-.38.14-.57.2-.33.11-.66.2-1,.28-.22.05-.45.1-.68.14-.18.03-.7.04-.02.02-.38.02-.76.08-1.14.09-.77.03-1.55,0-2.33-.02-.19,0-.39-.03-.58-.04-.5-.02.54.12.01,0-.38-.08-.74-.17-1.1-.31-.57-.22-1.42-.04-1.93.25s-1.01.9-1.15,1.49c-.33,1.43.44,2.57,1.75,3.08,1.67.65,3.74.62,5.52.53,2.07-.1,3.98-.61,5.85-1.46.54-.24,1-.95,1.15-1.49.16-.6.09-1.4-.25-1.93-.8-1.24-2.14-1.47-3.42-.9h0Z"/>
  </g>
  <g>
    <path class="cls-1" d="M286.81,416.19l-.28,1.02c-.03.12-.08.25-.19.31s-.28-.07-.22-.17c.01.23,0,.45-.07.67"/>
    <path class="cls-1" d="M284.4,415.52l-.17.62c-.05.18-.09.38-.16.55l.25-.6s-.03.06-.05.09l.39-.51s-.03.04-.05.05l.51-.39s-.03.02-.04.03l.6-.25s-.03,0-.04.01l.66-.09s-.03,0-.04,0l.66.09s-.04,0-.06-.02l.6.25s-.02-.01-.04-.02l.51.39s-.02-.02-.03-.03l.39.51s-.01-.02-.02-.03l.25.6s0-.02,0-.03l.09.66v-.02c-.03.22-.06.44-.09.66v-.02c-.08.2-.16.4-.25.6v-.02c-1.54-.42-3.1-.84-4.65-1.26,0,.14,0,.27-.01.41l.09-.66c-.01.09-.03.18-.05.27-.1.33-.12.66-.04,1,.02.33.11.64.3.93.16.29.37.53.64.7.24.22.52.37.85.45l.66.09c.45,0,.87-.12,1.26-.34l.51-.39c.31-.31.52-.68.64-1.1.08-.32.11-.66.15-.98.01-.12.01-.24,0-.36l-.09-.66c-.08-.33-.23-.61-.45-.85-.11-.19-.26-.34-.45-.45-.24-.22-.52-.37-.85-.45l-.66-.09-.66.09c-.33.08-.61.23-.85.45-.27.18-.49.41-.64.7-.1.2-.21.4-.26.62-.03.11-.04.22-.05.34-.03.12-.04.23-.05.35l.09.66v.02c.05.22.15.43.26.62s.26.39.43.56l.51.39s.02.01.03.02c.07.04.54.24.62.26.02,0,.03,0,.05.01l.66.09s.02,0,.03,0c.07,0,.62-.07.68-.09.01,0,.02,0,.03,0l.6-.25c.11-.06.18-.13.29-.22.06-.05.2-.14.28-.22,0,0,.02-.02.02-.03l.39-.51s.02-.03.03-.05c.05-.1.11-.25.14-.33.04-.11.1-.23.14-.35.01-.04.02-.08.03-.11.03-.11.06-.22.09-.34l.18-.67c.1-.33.12-.66.04-1-.02-.33-.11-.64-.3-.93-.16-.29-.37-.53-.64-.7-.24-.22-.52-.37-.85-.45l-.66-.09c-.45,0-.87.12-1.26.34l-.51.39c-.31.31-.52.68-.64,1.1h0Z"/>
  </g>
  <g>
    <path class="cls-1" d="M264.68,435.04c.59.18,1.14-.33,1.65-.67.39-.26.83-.42,1.27-.59.92-.34,1.85-.65,2.77-.98,2.41-.87,4.81-1.87,6.9-3.36"/>
    <path class="cls-1" d="M264.18,436.85c.83.16,1.55.07,2.3-.33.25-.14.48-.32.72-.47.11-.07.22-.14.34-.2.03-.02.33-.16.23-.12.36-.16,1.1-.4,1.61-.58.64-.23,1.29-.45,1.93-.69,2.41-.89,4.81-1.9,6.92-3.39.83-.58,1.21-1.64.67-2.57-.48-.82-1.73-1.26-2.57-.67-1.83,1.29-3.78,2.18-5.81,2.93-1.13.42-2.28.8-3.41,1.22-.53.19-1.06.39-1.55.67-.22.13-.43.29-.64.43-.11.07-.21.14-.33.2.18-.1.38-.11.59-.05-.99-.19-2.02.28-2.31,1.31-.25.92.31,2.12,1.31,2.31h0Z"/>
  </g>
  <path class="cls-1" d="M237.2,410.37c.69,1.31,1.01,2.76,1.23,4.22.24,1.57.12,3.39.89,4.82.32.59.49.85.51,1.54.03.88.14,1.65.57,2.43.74,1.36,1.29,2.56,1.34,4.14.07,2.41,3.82,2.42,3.75,0-.05-1.8-.48-3.55-1.33-5.15-.16-.31-.5-.67-.59-1.01-.05-.2.02-.5,0-.71-.05-.97-.24-1.85-.74-2.69-.37-.61-.39-1.18-.47-1.88-.1-.89-.21-1.77-.35-2.65-.28-1.74-.77-3.4-1.59-4.96-1.12-2.14-4.36-.24-3.24,1.89h0Z"/>
  <path class="cls-1" d="M238.83,420.65c-.07.3-.11.62-.14.93-.01.14-.02.29-.01.43.01.3.06.6.11.9.03.15.06.3.11.45.06.24.17.46.34.64.13.2.31.37.53.48.22.14.45.21.7.22.25.06.5.04.75-.03l.45-.19c.28-.17.51-.39.67-.67l.19-.45c.09-.33.09-.66,0-1-.06-.18-.1-.36-.13-.54l.07.5c-.04-.28-.04-.56,0-.83l-.07.5c.02-.11.04-.22.06-.33.08-.25.09-.5.03-.75-.01-.25-.09-.48-.22-.7-.12-.22-.28-.39-.48-.53-.18-.17-.39-.28-.64-.34l-.5-.07c-.34,0-.65.09-.95.26l-.38.29c-.23.23-.39.51-.48.83h0Z"/>
  <path class="cls-1" d="M240.4,419.81c-.16-.18.02.15.05.24.09.31.17.63.26.94.15.56.3,1.12.45,1.67.31,1.16.37,2.23.66,3.42s.47,2.35.65,3.53c.16,1.09.16,1.93-.15,2.99-.69,2.32,2.93,3.31,3.62,1,.44-1.47.47-2.79.25-4.3-.2-1.41-.42-2.83-.75-4.22-.16-.66-.18-1.28-.29-1.95s-.31-1.27-.48-1.89c-.38-1.42-.62-2.96-1.62-4.09-.67-.76-1.97-.68-2.65,0-.76.76-.67,1.89,0,2.65h0Z"/>
  <path class="cls-5" d="M386.57,408.68c.65.55.65,1.51.83,2.3.25,1.12.76,2.15,1.29,3.15.6,1.13.89,2.07,1.1,3.33.22,1.34.78,2.55,1.23,3.81.89,2.5,1.34,5.11,1.5,7.75.12,1.88.57,4.7-.96,6.14-1.76,1.66.9,4.31,2.65,2.65,1.97-1.86,2.21-4.59,2.14-7.15-.09-3.19-.46-6.44-1.41-9.5-.45-1.42-1.14-2.78-1.44-4.24s-.56-2.76-1.27-4.14c-.6-1.16-1.07-2.19-1.34-3.47s-.66-2.44-1.65-3.28c-1.83-1.55-4.5,1.09-2.65,2.65h0Z"/>
  <path class="cls-1" d="M242.41,431.89c-.21.85-.38,1.71-.71,2.52l.19-.45c-.17.41-.37.84-.64,1.19l.29-.38-.05.05.38-.29s-.07.05-.12.07l.45-.19c-.89.26-1.58.87-1.83,1.78-.13.47-.05,1.03.19,1.44.23.39.67.76,1.12.86,1,.23,2.02-.3,2.31-1.31,0-.04.02-.08.04-.11l-.19.45s.04-.07.06-.1l-.29.38s.08-.09.13-.13l-.38.29s.07-.04.1-.06l-.45.19c.46-.18.83-.29,1.18-.66.21-.21.38-.49.53-.75.26-.45.46-.93.65-1.41.3-.76.46-1.58.65-2.37.12-.48.06-1.01-.19-1.44-.23-.39-.67-.76-1.12-.86-.48-.11-1.02-.09-1.44.19s-.74.64-.86,1.12h0Z"/>
  <ellipse class="cls-3" cx="297.64" cy="424.24" rx="160.48" ry="64.39"/>
  <path class="cls-5" d="M335.17,435.65c3.22,0,3.22-5,0-5s-3.22,5,0,5h0Z"/>
  <path class="cls-5" d="M332.25,432.64v.08c.03-.22.06-.44.09-.66l-.02.07.25-.6s-.05.09-.08.13l.39-.51s-.07.08-.12.11l.51-.39c-.16.13-.33.23-.52.31l.6-.25c-.08.03-.16.06-.24.09-1.2.37-1.96,1.5-1.79,2.74.07.52.29,1.07.69,1.44.46.42,1.12.81,1.77.73.14-.02.27,0,.4,0,.32.01.66-.03.97-.11.47-.11.9-.4,1.31-.64.55-.32,1.1-.65,1.66-.97.67-.39,1.31-.79,1.92-1.28.2-.16.38-.33.54-.53.19-.24.4-.48.55-.74.16-.28.27-.59.4-.89.23-.56.04-1.43-.25-1.93s-.9-1.01-1.49-1.15c-.64-.15-1.36-.11-1.93.25l-.51.39c-.31.31-.52.68-.64,1.1l-.03.08.25-.6c-.07.15-.15.29-.25.43l.39-.51c-.18.23-.38.42-.61.6l.51-.39c-.56.42-1.18.74-1.78,1.09s-1.23.77-1.87,1.09l.6-.25c-.06.03-.12.04-.18.05l.66-.09c-.21.02-.42-.02-.62,0l.66,4.91c1.43-.44,2.87-1.55,2.82-3.2-.02-.65-.26-1.3-.73-1.77-.43-.43-1.15-.76-1.77-.73s-1.32.24-1.77.73-.75,1.1-.73,1.77h0Z"/>
  <path class="cls-5" d="M320.6,441.68c2.39-.98,4.99-1.3,7.38-2.26,2.62-1.06,5.14-2.4,7.61-3.76,1.15-.63,1.61-2.31.9-3.42s-2.19-1.57-3.42-.9-2.44,1.31-3.68,1.93c-.58.29-1.16.57-1.74.85-.23.11-.46.22-.69.33-.15.07-.3.14-.45.2.22-.09.19-.08-.08.03-2.34.88-4.84,1.22-7.15,2.17-1.21.49-2.2,1.68-1.75,3.08.38,1.16,1.78,2.28,3.08,1.75h0Z"/>
  <path class="cls-5" d="M392.23,428.4c3.22,0,3.22-5,0-5s-3.22,5,0,5h0Z"/>
  <path class="cls-5" d="M391.57,428.6c3.22,0,3.22-5,0-5s-3.22,5,0,5h0Z"/>
  <path class="cls-4" d="M240.15,428.02c-.07-.38-.19-.76-.36-1.11-.2-.42-.44-.81-.74-1.16l-.73,1.34s.07-.04.11-.05l-.38.13s.06-.02.09-.02l-.39.07s.08,0,.12-.01h-.37s.08,0,.12.02l-.33-.06c.06.01.12.03.17.05l-.27-.11c.07.03.14.07.21.12l-.2-.17c.11.09.19.2.26.32l-.11-.22c.07.14.12.28.15.43.06.26.36.43.59.5.33.1.77.08,1.09-.02s.72-.25.96-.53c.18-.2.32-.44.26-.73-.11-.48-.37-.9-.78-1.18-.28-.19-.65-.28-.98-.31s-.63.01-.94.09c-.2.04-.39.11-.57.21-.27.15-.62.33-.76.63-.11.23-.15.5.03.71.22.25.41.53.57.82l-.11-.22c.2.39.35.8.43,1.23.05.26.37.43.59.5.33.1.77.08,1.09-.02s.72-.25.96-.53c.18-.21.31-.44.26-.73h0Z"/>
  <path class="cls-4" d="M232.32,419.48l-.38,1.68c-.05.07-.04.12.02.16.05.07.12.1.21.1.13.02.27.02.4,0,.17,0,.34-.03.51-.06.38-.08.76-.18,1.11-.34l.28-.14c.13-.06.24-.15.33-.27l.38-1.68c.05-.07.04-.12-.02-.16-.05-.07-.12-.1-.21-.1-.13-.02-.27-.02-.4,0-.17,0-.34.03-.51.06-.38.08-.76.18-1.11.34l-.28.14c-.13.06-.24.15-.33.27h0Z"/>
  <path class="cls-4" d="M232.56,421.55c.59,0,1.62-.19,1.91-.8s-.24-.87-.79-.87c-.59,0-1.62.19-1.91.8s.24.87.79.87h0Z"/>
  <path class="cls-4" d="M231.83,421.74c.64,0,1.53-.13,2.05-.55.37-.3.47-.64-.17-.64s-1.53.13-2.05.55c-.37.3-.47.64.17.64h0Z"/>
  <path class="cls-4" d="M215.81,423.56c-.34.22-.5.46-.61.84-.07.26-.12.55-.08.81.08.51.5.9,1,.98.66.11,1.39-.06,2-.29.44-.16.93-.38,1.2-.79.11-.16.17-.39.12-.58-.05-.2-.27-.32-.29-.53l-.02.13c.03-.14-.04-.09-.22.14l-.99.4h.04c-.25.03-.5.08-.75.13h.05c-.19,0-.37-.01-.56-.01.13.02-.1-.07,0,.02l-.08-.1c.15.19.16.48.18.71.03.25.03.5,0,.75l.02-.13c-.03.15-.07.29-.14.42-.02.03-.03.06-.05.09-.01.02-.09.09-.02.03.07-.06-.02,0-.03.02-.04.03-.03.02.04-.02.07-.06.15-.1.24-.13.35-.16.76-.28,1.14-.31.02,0,.3,0,.14-.01.04,0,.21.03.08,0-.08-.02-.04-.01.01.01-.16-.07-.28-.16-.4-.3l.08.1c-.2-.26-.27-.57-.23-.89l-.02.13c.01-.06.02-.11.04-.16l-2.88.65c.29.36.57.73.86,1.09.21.26.53.57.49.94l.02-.13c-.01.06-.08.15.03.03-.1.11-.22.24-.06.36s.57.09.73.07c.38-.04.77-.12,1.13-.26.26-.1.62-.21.81-.43.17-.2.29-.39.21-.66-.06-.2-.19-.37-.32-.53-.33-.42-.67-.85-1-1.27-.13-.16-.3-.18-.5-.18-.29,0-.58.04-.86.11-.31.07-.63.16-.91.3-.18.09-.54.22-.6.43-.16.55-.02,1.18.5,1.5.39.24.88.26,1.32.22.74-.06,1.54-.27,2.19-.66.3-.18.59-.43.73-.76.11-.25.14-.54.14-.81s-.03-.52-.08-.78c-.02-.12-.05-.23-.13-.33-.2-.26-.54-.27-.83-.26-.68.03-1.4.22-1.99.56-.19.11-.5.33-.44.6.03.13.15.23.22.34.08.12.1.23.08.37l.02-.13c-.02.08-.05.14-.09.21-.06.12.1-.08,0,0,.51-.43,1.27-.57,1.93-.54.08.01.1.01.05,0-.05-.01-.03,0,.05.02-.03,0-.09-.05-.12-.06-.09-.05-.16-.12-.22-.19l.08.1c-.23-.29-.27-.64-.22-1l-.02.13c.02-.13.06-.25.1-.37.02-.06.04-.11.06-.16.07-.16.14-.12-.15.06.09-.06.39-.24.34-.41s-.4-.18-.5-.18c-.35,0-.72.06-1.06.15s-.69.21-.99.4h0Z"/>
  <path class="cls-4" d="M199.59,416.49c.46-.99.97-1.98.95-3.1-.01-.48-.15-.94-.42-1.34-.2-.3-.64-.74-.58-1.14l-2.88.63c.01,1.07.13,2.14.36,3.19.2.94.67,1.96.43,2.93-.13.54.91.41,1.18.37.38-.07.76-.17,1.1-.35.19-.1.53-.26.58-.49.26-1.07-.15-2.08-.38-3.11-.24-1.09-.37-2.19-.38-3.31,0-.19-.43-.25-.52-.25-.29-.02-.58.02-.87.08-.31.07-.63.16-.91.31-.17.09-.55.27-.58.49-.08.56.16.89.47,1.33.27.38.44.78.48,1.24.1,1.07-.48,2.07-.91,3.01-.24.52.99.4,1.18.37.38-.07.76-.17,1.1-.35.22-.12.48-.25.58-.49h0Z"/>
  <path class="cls-4" d="M196.68,421.91s.03-.01.05-.02l-.38.12s.05-.01.07-.02l-.39.09s.05,0,.07-.01l-.36.04s.05,0,.07,0h-.31s.09,0,.13,0l-.25-.04c.07.01.14.03.21.06l-.18-.08c.12.06.23.14.32.25l-.09-.12c.11.15.15.32.13.51l.02-.15c-.02.15-.07.29-.16.41l.11-.16s-.08.09-.13.13l.2-.16s-.06.04-.09.06l.27-.16s-.03.02-.05.03c-.14.06-.26.14-.37.24-.09.06-.16.14-.21.24-.04.08-.03.15.03.21.05.08.12.13.22.14l.25.04c.23.01.45,0,.67-.04.38-.07.76-.18,1.1-.35.36-.18.7-.42.9-.78.04-.07.07-.15.09-.23.03-.12.04-.25.04-.38-.01-.21-.13-.4-.27-.55-.06-.06-.12-.11-.19-.15-.12-.07-.26-.13-.39-.16-.27-.07-.54-.08-.81-.06-.29.02-.57.07-.85.14-.17.04-.34.09-.5.16-.17.06-.32.13-.47.22-.12.06-.24.14-.34.24-.08.06-.12.14-.12.23-.03.08,0,.14.08.19l.18.08c.19.04.38.06.57.04.38-.03.78-.1,1.13-.25h0Z"/>
  <path class="cls-4" d="M361.46,436.23c-.04-2.32.07-4.63.49-6.92.35-1.91.96-3.77,1.16-5.71.42-4-1.21-8.04-.01-11.98.2-.66-2.63-.3-2.87.48-1.19,3.91.33,7.84.02,11.8-.18,2.31-.98,4.53-1.33,6.82-.31,2.08-.4,4.18-.37,6.28,0,.56,2.91.1,2.9-.78h0Z"/>
  <path class="cls-4" d="M350.63,413.44c.86,1.76.75,3.61.48,5.5s-.61,3.8-.99,5.68c-.79,3.95-1.8,7.86-2.99,11.71-.36,1.16,1.97.74,2.39.42.15-.18.34-.26.58-.27.51-.11,1.39-.62,1.21-1.26-.18-.68-1.19-.59-1.68-.49-.73.15-1.38.45-1.97.9l2.39.42c1.24-3.99,2.27-8.04,3.08-12.15.39-1.99.78-4.01,1.01-6.03.2-1.77.19-3.58-.61-5.21-.56-1.14-3.4-.27-2.9.78h0Z"/>
  <path class="cls-4" d="M279.95,422.42c.02.16.04.33.05.49v-.25c.01.61-.1,1.17-.24,1.75-.07.29-.11.64,0,.93.17.45.49.74.95.88.34.11.76.08,1.1-.01s.73-.27.95-.54c.17-.2.35-.48.25-.75s-.32-.44-.6-.52c-.03,0-.06-.02-.08-.03l.28.12s-.07-.04-.11-.07l.2.18c-.05-.05-.1-.11-.13-.17l.12.23c-.05-.1-.07-.19-.08-.3v.25c0-.23.06-.44.12-.65.06-.23.11-.46.14-.69.07-.53.05-1.08-.03-1.61-.04-.27-.38-.45-.6-.52-.33-.11-.77-.09-1.1.01-.58.17-1.31.59-1.21,1.29h0Z"/>
  <path class="cls-4" d="M242.08,448.37c.94-.44,1.82-1.06,2.52-1.84s1.31-1.71,1.46-2.72-.17-2.09-.64-2.98-1.31-1.5-2.36-1.61c-.66-.07-1.57.23-1.9.85s.29,1.03.85,1.1c.25.03-.14-.04,0,0s-.2-.14.03.01c.05.04.11.07.16.11-.14-.1.02.02.05.05.11.11.2.23.28.36.11.16.15.23.19.32.28.67.53,1.45.38,2.19-.06.3-.21.58-.38.87-.05.08-.1.16-.15.24-.04.06-.15.21-.05.08-.1.14-.21.27-.32.39-.13.14-.27.27-.4.4-.14.15.23-.18-.04.04-.06.05-.12.09-.18.14-.15.11-.31.21-.47.32.09-.07.17-.09.03-.02-.1.05-.2.1-.3.15-.47.22-1.15.83-.71,1.38s1.42.4,1.95.15h0Z"/>
  <path class="cls-4" d="M237.48,442.3c.73-.1,1.45-.38,2.05-.82.31-.23.6-.51.86-.8.21-.24.42-.49.62-.75.12-.16.24-.34.33-.52s.12-.38.12-.59c0-.2-.43-.27-.53-.28-.34-.04-.74.02-1.07.11s-.7.22-.98.44l-.2.17c-.1.09-.14.21-.12.34v.04c0-.05,0-.11.01-.16-.01.19-.09.36-.19.52l.11-.17c-.16.26-.37.49-.56.72s-.41.47-.64.68l.2-.17c-.11.1-.23.19-.35.27l.27-.17s-.07.04-.1.06c-.02,0-.03.02-.05.03-.1.05-.02.01.24-.11-.19.08.44-.13.23-.07s.45-.08.24-.05c-.37.05-.77.18-1.1.36-.14.06-.26.15-.37.25-.09.07-.16.15-.21.26-.12.57.92.46,1.2.42h0Z"/>
  <path class="cls-4" d="M239.09,439.72c.64,0,1.53-.16,2.05-.55.39-.29.47-.55-.15-.55s-1.53.16-2.05.55c-.39.29-.47.55.15.55h0Z"/>
  <path class="cls-4" d="M238.91,439.91l-1.66,4.41,2.92-.3c.07-.75.07-1.53-.03-2.28-.16-1.16-1.44-1.35-2.39-1.01-.5.18-1.14.54-1.23,1.13-.05.34.03.75.06,1.09.05.62,0,1.49.69,1.78.45.19.89.21,1.36.09.4-.11.94-.35,1.14-.76.31-.66.53-1.35.58-2.08l-2.91.54c.07.81.16,1.59.55,2.32.26.48.63.8,1.19.89.83.14,1.7-.15,2.33-.7s.94-1.39,1.15-2.19c.22-.88.41-1.76.6-2.65.11-.51-.53-.76-.92-.78-.56-.03-1.35.14-1.72.6-1.42,1.8-2.34,3.92-2.54,6.22-.04.46.35.69.76.75.58.1,1.12-.08,1.63-.36.65-.36,1.07-.99,1.47-1.6.36-.56.69-1.14,1-1.74l-2.82.05c-.24.8-.43,1.6-.57,2.42-.06.38-.12.83.14,1.17.5.64,1.6.51,2.24.21.88-.41,1.4-1.35,1.81-2.19.37-.75.65-1.55.84-2.37.12-.51-.53-.76-.92-.78-.56-.03-1.35.14-1.72.6-.91,1.15-1.71,2.36-2.37,3.68-.3.6.27,1,.83,1.02.63.03,1.59-.21,1.9-.84.47-.95.83-1.95,1.05-2.99l-2.92.3v.05c.08-.16.18-.32.27-.47l-.03.03,1.35-.6.91.22-.12-.15-.17-.2c-.14-.17-.28-.34-.41-.51-.26-.32-.52-.64-.79-.96-.42-.52-1.42-.37-1.94-.12-.43.21-1.18.77-.73,1.32.48.59.94,1.22,1.45,1.78.37.4.89.53,1.43.48.62-.06,1.61-.42,1.71-1.15.18-1.33-2.69-.79-2.92.3-.19.91-.46,1.69-.87,2.5l2.73.19c.3-.59.62-1.17.97-1.73.17-.27.35-.54.53-.8.09-.13.19-.26.28-.39.05-.06.1-.13.14-.19.13-.18-.16.2.08-.1l-2.64-.18c-.14.62-.31,1.15-.55,1.67-.13.28-.27.55-.43.82-.08.13-.16.26-.24.39-.04.06-.09.13-.13.19-.22.32-.13-.02.37-.23l.77-.21h-.09c.23.02.47.04.7.05.32.38.44.45.37.23-.01-.11-.02-.11,0,0,.01-.11.03-.22.05-.33.04-.27.1-.53.15-.8.12-.55.26-1.09.42-1.63.07-.24-.13-.51-.32-.62-.24-.13-.51-.17-.79-.16-.59.01-1.42.26-1.72.83-.27.52-.55,1.03-.86,1.52-.15.24-.3.48-.47.7.11-.16-.07.07-.09.1-.11.1-.1.1.02,0-.06.04-.12.08-.18.11l2.39.39c.04-.52.12-1.04.24-1.55.05-.22.11-.43.17-.65.04-.14.09-.28.14-.43,0-.02.11-.29.06-.18.18-.45.39-.89.62-1.31.13-.23.26-.45.41-.67.06-.09.13-.19.19-.28.02-.03.28-.37.16-.21l-2.64-.18c-.14.65-.28,1.29-.43,1.94-.07.31-.14.62-.23.93-.08.27-.09.34-.22.59-.06.13-.13.27-.23.38.06-.08.07-.09.01-.04-.46.44.11.38,1.71-.19-.15-.24-.26-.36-.35-.65-.18-.54-.22-1.12-.27-1.69-.02-.25-.39-.44-.59-.49-.3-.07-.6-.07-.89-.01-.49.09-1.38.43-1.43,1.03s-.17,1.12-.4,1.59l2.5-.67c-.24-.1.14.08.06.1,0,0-.04-.15-.04-.16-.04-.2-.04-.4-.05-.6l-.05-.62c0-.1-.02-.21-.02-.31-.01-.22.03-.03-.02.05l-.44.44-.21.12-.77.21c-.28.04-.52,0-.74-.13-.03-.01-.06-.03-.08-.07,0,0,.04.17.04.19.04.22.05.44.07.67.02.41,0,.82-.04,1.22-.06.67.78.84,1.29.77.69-.09,1.37-.39,1.62-1.07l1.66-4.41c.09-.24-.15-.51-.32-.62-.26-.16-.67-.2-.97-.16-.69.09-1.37.39-1.62,1.07h0Z"/>
  <path class="cls-4" d="M239.64,439.9c.56,0,1.63-.2,1.92-.77s-.25-.77-.76-.77c-.56,0-1.63.2-1.92.77s.25.77.76.77h0Z"/>
  <path class="cls-4" d="M239.57,439.97c.59,0,1.62-.19,1.91-.8s-.24-.88-.79-.88c-.59,0-1.62.19-1.91.8s.24.88.79.88h0Z"/>
  <path class="cls-4" d="M239.52,439.72c.53,0,1.64-.21,1.93-.73.3-.55-.26-.63-.73-.63-.53,0-1.64.21-1.93.73-.3.55.26.63.73.63h0Z"/>
  <path class="cls-4" d="M239.39,439.61c.52,0,1.64-.22,1.93-.72.31-.54-.27-.58-.71-.58-.52,0-1.64.22-1.93.72-.31.54.27.58.71.58h0Z"/>
  <path class="cls-4" d="M239.43,439.43c.59,0,1.62-.19,1.91-.79s-.24-.87-.79-.87c-.59,0-1.62.19-1.91.79s.24.87.79.87h0Z"/>
  <path class="cls-4" d="M231.39,435.27c.72,1.01,1.2,2.64.5,3.7,0,.01-.11.13-.05.06-.06.06-.12.12-.18.17,0,0-.25.21-.16.14.09-.06-.11.07-.12.09-.3.22-.6.43-.91.63-.15.1-.31.19-.47.29-.23.14.1-.04-.05.03-.07.03-.15.07-.22.1-.08.03-.2.1-.28.11.11-.01.22-.07.04-.02s-.05.05.04,0c-.08.04-.27.04-.36.04-.56.05-1.52.39-1.64,1.03-.13.69.85.71,1.27.7,1.18-.05,2.31-.48,3.38-.95.52-.23,1.05-.48,1.44-.9s.45-.88.46-1.43c0-.5.12-.98.1-1.48-.02-.48-.14-.94-.33-1.37-.41-.95-1.06-1.75-1.72-2.53s-3.47.24-2.68,1.17c.49.58,1.01,1.17,1.36,1.85s.51,1.43.4,2.21c-.03.19-.04.37-.04.55,0,.16-.04.37-.02.52,0,.05-.05.09-.01.09-.02,0,.27-.19.13-.1-.17.1.32-.14,0,0-.07.03-.14.06-.22.1-.2.09-.41.18-.61.26-.08.03-.17.07-.25.1-.27.11.11-.02-.06.02-.19.05-.38.11-.58.16.14-.03.15-.02,0,0-.13.01-.26.02-.4.03l-.36,1.72c1.16-.1,2.24-.55,3.23-1.14.86-.52,1.79-1.12,2.42-1.91,1.22-1.53.65-3.73-.39-5.18-.15-.21-.57-.28-.79-.29-.37-.02-.81.06-1.14.22-.44.21-1.15.69-.75,1.24h0Z"/>
  <path class="cls-4" d="M233.97,436.74c0,.94-.57,1.76-1.06,2.51-.28.42-.55.85-.83,1.27-.21.32-.64.81-.07,1.01.79.27,1.86-.09,2.56-.47.45-.25.74-.59.95-1.05.43-.93.84-1.87,1.26-2.81l-2.88.64c-.05.74-.43,1.48-.7,2.16-.29.76-.59,1.51-.88,2.27l2.86-.51c.44-1.78,1.18-3.46,2.21-4.98l-2.88.64c.17,1.05.14,2.11-.11,3.15l2.86-.51c.18-.89.28-1.79.3-2.7l-2.9.78c.41,1.82,0,3.63-.44,5.4-.12.5.92.34,1.16.29.38-.07.76-.17,1.1-.35.18-.09.53-.24.59-.45l1.56-5.72-2.88.64-.03,3.2c0,.17.44.21.51.21.29.01.58-.03.87-.1.31-.07.63-.16.91-.3.2-.1.5-.23.59-.45.41-.95.73-1.92.97-2.93l-2.88.64c.09.59.11,1.2.03,1.79-.07.51.88.35,1.16.29.38-.07.76-.17,1.1-.35.16-.08.56-.25.59-.45.1-.69.12-1.37.01-2.07-.03-.18-.41-.21-.51-.21-.29-.01-.58.03-.87.1-.31.07-.63.16-.91.3-.18.09-.54.24-.59.45-.23,1-.56,1.98-.97,2.93l2.88-.64.03-3.2c0-.55-2.72.05-2.88.64l-1.56,5.72,2.86-.51c.45-1.84.91-3.78.48-5.67-.04-.18-.4-.2-.51-.21-.34-.02-.73.05-1.06.14-.37.1-1.32.34-1.33.85-.02.82-.1,1.63-.26,2.43-.1.51.9.34,1.16.29.38-.07.76-.17,1.1-.35.18-.09.54-.24.59-.45.27-1.12.33-2.28.15-3.42-.03-.18-.41-.21-.51-.21-.29-.01-.58.03-.87.1-.51.11-1.19.29-1.5.75-1.02,1.52-1.77,3.2-2.21,4.98-.12.5.92.34,1.16.29.38-.07.76-.17,1.1-.35.2-.1.51-.23.59-.45.31-.8.62-1.6.93-2.39.29-.75.64-1.49.69-2.31.01-.17-.46-.21-.51-.21-.29-.01-.58.03-.87.1-.31.07-.63.16-.91.3-.2.1-.49.23-.59.45-.27.61-.55,1.22-.82,1.83-.13.28-.26.57-.38.85-.06.13-.11.26-.18.38-.13.22-.22.18.14,0l.71-.26-.09.03.75-.13h-.07c.19.01.38.02.56.03.16.02-.07.15.09.03.08-.05.14-.21.19-.29l.41-.63c.26-.39.51-.78.77-1.18.47-.74.86-1.52.86-2.41,0-.48-2.9-.07-2.9.78h0Z"/>
  <path class="cls-4" d="M229.35,434.88c-.02.54.2.94.61,1.29.15.12.31.21.47.32.08.06.17.16.06.04.04.05.08.1.12.15,0,0,.14.24.09.13-.05-.1.03.08.04.1.05.14.09.29.12.44.03.17.06.34.07.52,0-.12,0-.04,0,.03,0,.09,0,.17,0,.26,0,.35.01.7-.03,1.05,0,.08-.02.16-.04.23-.01.05-.08.25-.03.12-.03.07-.06.14-.1.22-.09.19.02,0-.06.08-.12.14-.24.27-.36.4-.06.06-.13.13-.02.03-.08.07-.16.14-.24.21-.3.27-.62.52-.95.75-.49.35-.74,1.14-.15,1.53.63.41,1.5.25,2.08-.17.73-.52,1.47-1.13,2.04-1.82.6-.73.79-1.58.79-2.51,0-.72,0-1.51-.26-2.2-.17-.45-.4-.8-.75-1.12-.13-.12-.27-.21-.41-.31-.03-.02-.26-.14-.26-.18,0,.02.1.12.1.2.02-.71-.72-1.04-1.35-.98-.59.06-1.57.45-1.59,1.19h0Z"/>
  <path class="cls-4" d="M414.1,423.9c-.02.73.11,1.45.4,2.11.13.29.29.65.56.84.2.13.43.16.66.18.58.04,1.2-.13,1.73-.35s.86-.52,1.12-1c.19-.35.38-.7.58-1.05.38-.7.77-1.4,1.15-2.1l-2.88.63c.02.17.02.34,0,.52l.02-.15c-.04.35-.15.67-.33.98-.04.07-.08.13-.12.19-.05.07-.06.08-.02.03-.03.04-.06.08-.1.12-.1.11-.21.22-.32.32-.08.07-.08.07.02-.02-.04.03-.08.06-.12.09-.06.05-.12.09-.19.14-.19.14-.38.29-.57.44-.29.24-.54.51-.71.85-.32.65-.15,1.37.56,1.62.56.2,1.23.1,1.79-.05.59-.16,1.33-.42,1.63-1,.1-.18-.11-.3-.25-.34-.27-.09-.66-.04-.93,0-.38.07-.76.17-1.1.35-.22.12-.47.24-.59.47-.04.07-.03.06.03-.03.27-.22.58-.37.94-.44.88-.05,1.15-.09.81-.11.17.03.2.03.1,0-.08-.03-.07-.02.03.02-.03-.02-.06-.03-.09-.05-.06-.04-.1-.09-.15-.14l.09.12c-.13-.19-.16-.4-.14-.62l-.02.15c.03-.2.1-.38.2-.56.06-.1-.11.11.03-.04.03-.04.06-.07.1-.11.05-.05.16-.19.23-.21l-.08.06s.06-.05.09-.07c.04-.03.08-.06.12-.09.08-.06.17-.12.25-.18.23-.17.46-.35.67-.55.66-.65,1.09-1.54.98-2.48-.02-.18-.41-.23-.52-.24-.29-.02-.58.02-.87.09-.31.07-.63.16-.91.31-.22.12-.46.25-.59.47-.33.61-.66,1.21-1,1.82-.16.3-.32.59-.49.89-.08.15-.16.3-.24.44-.04.06-.07.13-.11.19l.04-.05c-.2.22,0,.12.56-.28l.77-.21h-.06c.22,0,.45-.02.67-.03.06,0,.11.02.17.04.05.03.05.02-.02-.02-.04-.05-.09-.09-.13-.14l.09.12c-.52-.74-.72-1.76-.69-2.65.01-.51-2.87-.12-2.9.78h0Z"/>
  <path class="cls-4" d="M394.8,402.02c.17,2.88.33,5.75.46,8.63s.21,5.71-.46,8.51c-.28,1.16,2.65.74,2.91-.33.68-2.83.59-5.74.46-8.62s-.3-5.98-.48-8.97c-.06-1.03-2.97-.41-2.9.78h0Z"/>
  <path class="cls-4" d="M406.74,412.83c-.38.59-.35,1.25-.37,1.92-.02.56-.1,1.13-.28,1.66l.09-.25c-.08.22-.17.42-.29.62-.03.04-.07.09-.09.13.04-.07.16-.2.04-.06-.07.08-.39.36-.05.08-.22.18-.48.4-.52.71-.04.26.1.52.33.64.58.33,1.55.21,2.07-.21.43-.36.8-.74,1.06-1.24.21-.4.35-.84.44-1.28.08-.38.11-.76.12-1.15.01-.43,0-.87.12-1.28l-.09.25c.04-.11.09-.22.16-.32.14-.21.12-.52-.04-.72-.18-.22-.54-.34-.81-.35-.71-.04-1.5.23-1.9.85h0Z"/>
  <path class="cls-4" d="M407.5,413.89c.62,0,1.61-.18,1.9-.84.26-.6-.23-1.02-.83-1.02s-1.61.18-1.9.84c-.26.6.23,1.02.83,1.02h0Z"/>
  <path class="cls-4" d="M407.32,413.51c.61,0,1.61-.18,1.9-.82.27-.59-.23-.98-.82-.98s-1.61.18-1.9.82c-.27.59.23.98.82.98h0Z"/>
  <path class="cls-4" d="M382.57,419.73c.01.24.03.48.04.72v-.22c0,.08-.01.15-.04.22l.1-.22c-.06.13-.16.23-.25.34-.1.12-.19.24-.29.36l.19-.21s-.05.06-.09.08l.26-.2c-.07.05-.14.08-.21.12-.18.11-.33.24-.45.41-.08.1-.11.21-.1.33-.02.11.02.21.11.3.13.12.28.2.46.24.25.09.61.08.87.05.32-.04.62-.12.92-.25.26-.1.49-.26.73-.38l-.33.17c.14-.07.28-.13.43-.18l-.38.13c.14-.05.27-.08.42-.11l-.39.08c.1-.02.2-.03.29-.04.2-.02.39-.07.58-.14.18-.05.35-.13.51-.23.14-.08.26-.18.35-.3.1-.09.16-.2.19-.33v-.22c-.05-.15-.15-.26-.3-.33-.3-.14-.64-.15-.96-.12-.52.05-1.01.19-1.5.37-.36.13-.69.33-1.02.51l.33-.17s-.1.05-.15.07l.38-.13s-.06.02-.09.02l.39-.08s-.04,0-.06,0l.37-.02s-.04,0-.06,0l.33.04s-.06-.01-.09-.02l.03,1.27c.12-.07.22-.13.34-.22.08-.06.15-.11.22-.18.09-.09.17-.19.25-.29.13-.16.27-.32.39-.48.09-.12.16-.27.21-.42s.02-.32.02-.47c0-.21-.02-.43-.03-.64-.03-.12-.1-.2-.2-.26-.1-.09-.22-.15-.37-.16-.17-.04-.34-.05-.51-.03-.2,0-.39.03-.58.08-.34.1-.71.24-.96.5l-.19.21c-.09.13-.13.28-.09.44h0Z"/>
  <path class="cls-4" d="M178.97,401.63c-.14.39-.23.78-.21,1.2s.08.82.26,1.21.37.72.67,1.02c.37.37.76.64,1.26.84.33.13.77.11,1.1.02s.73-.29.95-.57c.17-.23.33-.53.23-.82s-.33-.48-.61-.6c-.08-.03-.15-.06-.22-.1l.28.14c-.19-.1-.37-.23-.53-.38l.21.2c-.23-.22-.41-.48-.55-.76l.12.25c-.14-.3-.23-.62-.25-.94l.02.28c-.02-.27.01-.54.09-.81l-.08.28s.03-.08.04-.12c.1-.28.13-.56-.06-.81-.18-.24-.54-.39-.83-.42-.38-.04-.8.02-1.14.2-.29.15-.63.37-.74.69h0Z"/>
  <path class="cls-4" d="M194.78,422.57c.14,1.66.19,3.31.17,4.97-.01,1.23.11,3.19,1.77,3.14.67-.02,1.54-.25,2-.8.27-.32.26-.69.25-1.08,0-.35,0-.62.12-.95.15-.37.22-.72.23-1.12.03-.81-.06-1.62-.04-2.43,0-.39.02-.78.05-1.17.02-.22.03-.45.06-.67,0-.1,0-.39.06-.46l-1.17.63.09-.03-1.07.1.1.02-.44-.17c.25.14.15.63.16.88,0,.39.02.78.03,1.16.02.75.03,1.5.05,2.24.02.69.05,1.38-.13,2.05s-.5,1.23-.85,1.81c-.32.54.28.7.74.69.55-.02,1.6-.21,1.92-.75.41-.69.85-1.39,1.06-2.17s.17-1.55.15-2.32c-.02-.89-.04-1.77-.06-2.66-.02-.74.23-1.89-.68-2.15-.67-.19-1.51.03-2.1.36-.52.29-.68.62-.74,1.18-.08.87-.12,1.74-.12,2.61,0,.77.18,1.66-.03,2.41-.1.37-.27.66-.29,1.06,0,.22.1.82-.01.97l.46-.36-.07.05,1.46-.39h-.09c.19.03.39.05.58.08.14.07-.11-.17-.13-.2-.07-.11-.13-.23-.18-.36-.09-.23-.14-.48-.18-.72-.09-.6-.05-1.22-.05-1.83,0-1.48-.05-2.95-.18-4.43-.02-.21-.4-.29-.54-.31-.34-.05-.75,0-1.07.1-.42.12-1.34.41-1.29.99h0Z"/>
  <path class="cls-4" d="M237.74,431.8c.68.61.61,1.98.52,2.79-.12,1.12-.54,2.19-.57,3.32s.53,1.99,1.25,2.78c.49.53,1.26.5,1.91.37.41-.09.8-.22,1.17-.41.09-.05.18-.09.27-.14l.11-.06c-.2.1-.42.16-.65.19.49-.1,1.52-.3,1.67-.89s-.93-.51-1.21-.46c-.44.09-.87.2-1.28.39-.13.06-.26.12-.39.19-.22.12-.51.13.17-.04l.75-.11c.34.13.41.11.21-.04-.07-.07-.13-.15-.2-.23-.13-.16-.27-.32-.39-.49-.24-.34-.41-.71-.48-1.12-.15-.83.09-1.66.27-2.46.2-.86.31-1.72.27-2.61-.04-.74-.15-1.52-.73-2.04-.45-.4-1.41-.13-1.89.06-.26.1-1.27.6-.82,1h0Z"/>
  <path class="cls-4" d="M238.12,431.66c.12.28.19.58.21.88v-.24c0,.16-.01.33-.04.49-.04.26.11.49.32.62.14.08.28.13.44.14.18.04.35.05.53.02.38-.05.78-.16,1.09-.39.23-.17.48-.39.53-.69s.04-.62,0-.93c-.03-.24-.09-.47-.19-.68-.03-.13-.1-.23-.21-.3-.1-.1-.23-.17-.37-.2-.17-.05-.34-.07-.51-.05-.2,0-.39.02-.58.08-.34.1-.72.25-.96.53l-.18.23c-.09.15-.12.31-.08.49h0Z"/>
  <path class="cls-4" d="M298.02,403.83c.19.15.38.29.57.44.08.06.15.12.23.18.09.12.12.13.1.01l.77-.59-.12.05,1.76.94c.16-.17.1-.12.2-.14.45-.08.9-.13,1.35-.19.99-.14,1.99-.29,2.98-.4,1.77-.19,3.5.75,5.13,1.35.67.25,1.45.15,2.06-.25.35-.23.91-.96.23-1.22-1.2-.44-2.39-.91-3.6-1.32s-2.44-.41-3.7-.26-2.5.33-3.74.51c-1.17.17-2.43.44-3.26,1.35-.31.34-.42.75.03,1.01.5.3,1.24.12,1.73-.08.53-.22,1.23-.72,1.08-1.39-.12-.54-.72-.85-1.13-1.16-.55-.42-1.32-.34-1.93-.07-.29.13-1.3.82-.75,1.24h0Z"/>
  <path class="cls-4" d="M439.33,437.51c-.19.98-1.37,1.75-2.15,2.26-.93.61-1.95,1.02-3.03,1.28l1.19,1.53c.51-.4,1.18-.53,1.77-.79.72-.32,1.39-.77,1.96-1.32,1.1-1.06,1.67-2.66,1.2-4.15-.29-.91-1.84-.7-2.39-.22-.37.32-.66.62-.75,1.12-.07.34-.01.68-.14,1.01-.28.72-1.36,1.21-1.97,1.6-1.52,1-3.19,1.74-5,2.04l1.05,1.38c.31-.35.7-.45,1.11-.67.33-.18.63-.39.89-.66.14-.14.26-.33.42-.45.42-.3.98-.46,1.43-.74s.9-.63,1.25-1.05c1.34-1.58,1.44-3.85.29-5.56-.65-.97-2.94-.16-2.78,1.01s.17,2.98-.53,4.04l.43-.47c-.32.28.21-.12-.17.12-.16.1-.33.18-.49.3-.34.25-.58.57-.65.99-.08.54.5.82.95.87.62.06,1.28-.18,1.72-.62,1-1.01.73-2.41.4-3.65-.35-1.33-.99-2.69-2.27-3.36-.8-.42-1.78-.39-2.53.15-.63.45-.85,1.23-.37,1.87.43.58,1.08,1.05,1.59,1.56.41.4.96.88.87,1.51l2.91-.52c-.37-1.41-1.48-2.42-2.75-3.05-1.45-.72-3.01-1.3-4.6-1.61-.65-.13-1.59.26-1.89.86-.34.68.3,1.02.86,1.13,1.14.22,2.35.72,3.38,1.23.96.47,1.82,1.15,2.1,2.22.32,1.22,2.76.52,2.91-.52.13-.9-.32-1.65-.92-2.28-.32-.33-.66-.65-1-.97-.17-.17-.35-.34-.52-.51s-.3-.16-.25-.34l-.26.51.09-.11-.58.41.13-.05-1.14.21c-.24-.08-.25-.07-.02.05.09.06.18.12.26.19.15.13.27.3.39.46.3.43.48.91.63,1.41.17.57.69,1.92.18,2.43l2.66.25v.04c-.15.16-.29.31-.44.47.12-.1.13-.11.02-.03.16-.08.31-.16.45-.25.26-.18.49-.37.66-.64.28-.44.41-.99.53-1.49.29-1.18.31-2.39.14-3.59l-2.78,1.01c.81,1.21.75,3.11-.52,3.98-.79.55-1.67.79-2.36,1.52-.3.32-.42.29-.95.57-.5.27-.93.61-1.31,1.04-.71.8.21,1.52,1.05,1.38,2.39-.39,4.6-1.21,6.66-2.49.92-.57,1.98-1.17,2.73-1.97.36-.39.63-.85.78-1.36.1-.33.02-.83.18-1.11l-.43.47.12-.1-2.39-.22c.33,1.04-.02,2.11-.9,2.76s-2.11.79-3.03,1.51c-.37.29-.72.77-.39,1.23s1.1.42,1.58.31c1.64-.39,3.21-1.09,4.6-2.05,1.25-.86,2.71-2.04,3.01-3.61.26-1.36-2.69-.96-2.93.26h0Z"/>
  <path class="cls-4" d="M439.45,438.79c-.22.14-.44.31-.56.55-.08.16-.07.34-.09.52l.02-.13c-.01.07-.03.12-.07.17l.12-.14c-.09.1-.2.17-.29.28-.08.1-.16.2-.23.3l.12-.14s-.07.08-.12.11l.2-.15h-.02c.52-.15,1.04-.31,1.56-.47-.02,0,.35-.01.2,0-.26,0-.5.03-.76.07-.44.08-.88.22-1.29.4-.21.09-.41.19-.62.29-.14.06-.26.13-.38.22-.09.05-.16.12-.22.21-.07.18.08.26.23.29.3.06.63.02.92-.04.38-.07.76-.18,1.1-.34.17-.08.34-.16.52-.24.03-.02.07-.03.1-.05-.19.08-.38.15-.58.2l-.64.12c-.25,0-.32.01-.2,0,.12,0,.23,0,.35-.01.14-.01.29-.03.43-.06.46-.08.92-.23,1.33-.44.16-.08.32-.17.45-.3s.23-.29.35-.43l-.12.14c.12-.14.28-.22.37-.39.08-.14.06-.33.09-.49l-.02.13c.02-.12.07-.22.14-.31l-.12.14s.07-.07.11-.1l-.2.15.03-.02c.09-.06.39-.24.34-.41s-.39-.19-.51-.19c-.35,0-.72.05-1.06.15s-.7.2-.99.4h0Z"/>
  <path class="cls-4" d="M437.79,441.28c.56,0,1.63-.2,1.92-.76s-.25-.74-.76-.74c-.56,0-1.63.2-1.92.76s.25.74.76.74h0Z"/>
  <path class="cls-4" d="M438.37,441.16c.64,0,1.59-.18,1.9-.84.28-.59-.24-1.03-.83-1.03-.64,0-1.59.18-1.9.84-.28.59.24,1.03.83,1.03h0Z"/>
  <path class="cls-4" d="M437.94,441.27c.59,0,1.62-.19,1.91-.8s-.24-.87-.79-.87c-.59,0-1.62.19-1.91.8s.24.87.79.87h0Z"/>
  <path class="cls-4" d="M437.79,441.37c.56,0,1.63-.2,1.92-.76s-.25-.75-.76-.75c-.56,0-1.63.2-1.92.76s.25.75.76.75h0Z"/>
  <path class="cls-1" d="M442.59,440.6c-.76-.67-1.96-.36-2.72.15-.54.36-.88.91-1.21,1.46-.55.94-.87,2.03-.95,3.11-.08,1.23,1.79,1.22,2.45.62,2.01-1.82,2.79-4.35,3.23-6.95.07-.43-.28-.78-.65-.92-.48-.19-1.02-.1-1.48.11-1.1.5-1.86,1.68-1.58,2.9.16.7,1.16.84,1.73.66.61-.19,1.33-.7,1.17-1.44,0-.01-.03-.17-.03-.17.03,0,0,.22.02,0,0-.03.03-.22,0-.06s.03-.07.04-.09c.06-.17.01.04-.04.05.01,0,.1-.12.1-.13,0,.06-.22.22-.03.05.11-.11-.32.17-.06.05l-2.13-.82c-.09.54-.19,1.07-.32,1.6-.02.08-.04.16-.06.23-.04.17.05-.18,0-.01-.04.12-.07.25-.11.37-.08.27-.18.55-.28.81-.1.25-.21.5-.32.74-.06.11-.11.22-.17.33-.03.05-.06.11-.09.16-.15.27.1-.14,0,0-.15.22-.3.44-.47.64-.08.1-.16.19-.25.28-.01.01-.23.23-.07.08s-.07.06-.08.07l2.45.62c.02-.36.09-.71.16-1.06.02-.13-.05.15.01-.06.03-.08.05-.16.08-.24.06-.18.13-.35.21-.52.07-.16.15-.31.23-.46.02-.03.16-.27.07-.13s.06-.09.08-.12c.06-.08.12-.16.18-.25.13-.19-.17.11-.04.03.09-.06.26-.14-.07.03l-.22.08c-.98-.32-1.31-.35-.98-.08.24.21.7.27,1,.25.36-.02.81-.17,1.09-.41.53-.45.69-1.09.13-1.58h0Z"/>
  <path class="cls-4" d="M439.6,435.8c.54.82-.09,2.14-.43,2.93-.46,1.06-1.04,2.07-1.62,3.07-1.13,1.97-2.27,3.98-2.59,6.26-.09.62.64.82,1.12.82.68,0,1.32-.29,1.71-.85,1.14-1.63,2.29-3.26,3.43-4.89,1-1.43,1.97-2.96,2.11-4.74.09-1.17-1.84-.87-2.4-.43-2.22,1.74-4,3.96-5.07,6.58-.2.48.02.86.51,1.01.6.18,1.28,0,1.79-.33,1.38-.88,2.54-2.17,3.19-3.68.27-.63.72-1.59.47-2.28-.38-1.02-1.91-.81-2.68-.47s-1.47,1.04-2.09,1.64-1.18,1.24-1.71,1.91c-1.08,1.38-1.99,2.86-2.7,4.45-.28.63.25,1.02.84,1.07.73.06,1.48-.25,1.9-.85,2.64-3.72,4.83-7.73,6.54-11.95l-2.7.5c.36.37.3.83.21,1.32-.14.69-.35,1.37-.55,2.05-.42,1.45-.88,2.89-1.35,4.33-.17.52.57.79.93.82.61.05,1.29-.17,1.72-.61,1.67-1.7,3-3.71,3.88-5.92l-2.83.03c-.51,3.46-1.65,6.78-2.8,10.07-.21.6.75.82,1.12.82.62,0,1.39-.27,1.71-.85,1.37-2.51,2.61-5.09,3.71-7.73l-2.83.03c-.32,2.67-1.3,5.15-2.89,7.32-.43.58.37,1.03.84,1.07.74.07,1.46-.26,1.9-.85,1.02-1.38,1.74-2.92,2.21-4.56.19-.68-.87-.86-1.3-.82-.66.06-1.42.41-1.62,1.1-.42,1.47-1.12,2.83-2.03,4.06l2.74.22c1.68-2.29,2.74-5.01,3.07-7.82.16-1.34-2.48-.83-2.83.03-1.1,2.64-2.33,5.22-3.71,7.73l2.83-.03c1.15-3.29,2.29-6.61,2.8-10.07.2-1.33-2.49-.84-2.83.03-.81,2.04-1.98,3.87-3.52,5.44l2.65.21c.52-1.6,1.03-3.2,1.49-4.81.33-1.18.95-2.79-.05-3.82-.63-.65-2.35-.38-2.7.5-1.71,4.22-3.91,8.23-6.54,11.95l2.74.22c.6-1.34,1.33-2.63,2.21-3.81.43-.57.9-1.11,1.39-1.63.27-.28.55-.56.84-.83.13-.12.27-.23.4-.36.39-.38.21.14-.58.04l-.6-.18c-.06-.23-.1-.23-.1,0-.03.13-.06.25-.09.38-.05.17-.1.33-.16.49-.16.42-.38.83-.63,1.22-.46.71-1.07,1.28-1.77,1.73l2.31.68c.91-2.21,2.31-4.19,4.21-5.67l-2.4-.43c-.13,1.7-1.11,3.08-2.06,4.44-1.1,1.57-2.19,3.13-3.29,4.7l2.83-.03c.33-2.39,1.65-4.42,2.81-6.48.59-1.03,1.14-2.09,1.55-3.21s.76-2.41.02-3.53c-.64-.97-3.43.06-2.67,1.22h0Z"/>
</svg>