<?xml version="1.0" encoding="UTF-8"?>
<svg id="Ebene_1" data-name="Ebene 1" xmlns="http://www.w3.org/2000/svg" viewBox="0 0 279.64 61.82">
  <defs>
    <style>
      .cls-1 {
        fill: #fff;
      }

      .cls-2 {
        fill: none;
      }

      .cls-3 {
        fill: #111;
      }

      .cls-4 {
        fill: #ea5b0c;
      }
    </style>
  </defs>
  <g>
    <rect class="cls-2" x="6.93" y="10.89" width="258.57" height="37.84"/>
    <path class="cls-1" d="M41.19,12.71c.6.05,1.15.22,1.15.88,0,1.38-.99,1.81-2.09,1.98.05-.05.11-.22.11-.66-.27.71-1.15,1.43-2.36,1.49-2.86.17-6.16.5-8.25.5-.88,0-1.65-.11-1.92-.44-.06-.05-.11-.11-.11-.22,0-.33.44-.83,1.59-1.54-1.48.83-2.31,1.38-2.31,1.65,0,.17.22.17.71.17l-3.08.39c.6.38.99.77.99,1.21,0,.39-.77,4.73-.99,5.67-.11.33-.17.71-.11.93,0,0,0,2.09-.44,2.36v2.53c0,.05.11.5.27.77.17.61.38,1.21.38,1.81,0,.39-.05.72-.33,1.04v.22c0,1.92-.11,3.79-1.15,4.12.27,1.1.66,2.97.66,3.24s-.11,1.71-1.21,1.71,0,.44-2.58.44c-.17,0-.38-.17-.55-.55-.11.05-.22.05-.33.05-.77,0-1.59-.55-1.59-3.08,0-1.87,0-3.19.33-4.07-.22-.93-.44-2.25-.44-2.8v-.66c0-1.38.11-1.65-.11-3.36,0-.44.22-.77.44-1.1-.27-.27-.27-.88-.27-1.43,0-.27.06-.5.22-.77,0-.11-.06-.28-.06-.44,0-1.32.71-5.83.94-6.93-2.03.27-1.71.6-4.67.6-.22,0-.44,0-.6-.05,0,.93-6.38.71-9.07,1.76-.33.11-.66.11-.99.11-1.48,0-3.08-.66-3.08-1.32,0-.05,0-.11.06-.17-.22-.11-.33-.27-.33-.44,0-.44,1.43-2.09,4.34-3.35.05-.06.11-.06.22,0,.44-1.21,4.23-2.04,7.64-2.04.66-.05,3.13-.28,5.77-.71l1.37-.22.06-.38c.27-1.38.6-1.92,1.04-1.92.49,0,1.1.88,1.59,1.92,3.08-.28,4.62-.28,6.76-.28h2.97c.6,0,1.87-.28,2.86-.28s1.38.5,1.54.72c.17-.06.28-.11.44-.11.22,0,.44.05.77.27l.17.22.38-.28c.5-.27.94-.55,1.38-.55.22,0,.5.05.66.17.44.33,1.04,1.04,1.21,1.21Z"/>
    <path class="cls-1" d="M79.85,48.01c0,.44-.28,1.54-1.48,1.54-.88,0-1.92-1.04-1.92-1.04-.33-.22-.6-.5-.6-1.04,0-.33.05-.55.17-.71-1.15,0-2.2.66-3.41.66-.5,0-1.92,0-1.92-.66,0,0-1.59.17-2.14.17-1.27,0-2.8-.27-4.18-1.15-.99-.61-7.42-4.34-8.74-4.62-.77-.38-2.53.11-3.19-1.1-.33-.55-.66-.93-1.04-1.1-.17.05-.6.11-.66.17-1.04,0-2.8-1.82-3.24-1.82-1.26,0-2.09-.82-3.96-1.54-.27.5-.71,1.15-.82,1.21.22.38.27.38.27.38.22.38.38.83.38,1.54s-.55,1.04-.55,1.54c.22.28.39.61.39,1.04,0,.94-.88,1.49-1.54,1.87.06-.05.11-.05.11-.22-.11.11-.17.27-.17.33-.33.77-.88,1.92-1.7,1.92-.11,0-.27-.05-.38-.11h-1.1l-.27-2.47.27-1.32.33-2.58-.5-1.82.6-2.2s-.33.33-.33.93c-.17-.33-.33-.77-.33-1.38,0-.33.05-.66.22-.99l-.38-.06c-.27-.05-.33,0-1.04-.44h-.66c-1.15,0-2.42-.17-2.42-1.59,0-.94.94-1.59,1.7-1.92l.39-.83c.05,0,1.65-.55,2.8-.88l.55-2.8.88,1.1c-.33-.66-1.15-2.8-1.15-3.02v-.55c-1.27-.99-3.9-4.62-3.9-6.54,0-.88.39-2.14,1.32-2.97.99-.88,3.96-2.47,4.73-2.47.55,0,.99.33,1.15.71.5,0,1.54-.22,2.31-.22,1.7,0,5.66.99,5.72.99,0,0,.39-.27.99-.27.93,0,1.32.77,2.42,1.32-.05-.11-.05-.27-.05-.38,1.76,0,1.92,1.16,3.24,1.49l2.09.99v.88c.17.17.27.22.39.28l.6.99c0,.99.33,1.6.33,2.31,0,2.64-1.37,3.13-2.58,3.63-1.27.55-2.31,3.02-4.01,3.02-4.01,0-1.15,1.32-5.72,2.97-.22.17-.44.17-.66.17h-.33c-.17,0-.33,0-.44.06-1.1.77-1.59.93-2.03.93l-.55.22.55.28c.38.27.82.55.99.6.11,0,.33-.05.55-.05.99,0,3.74,2.47,4.84,3.02.72.38,1.04.55,1.04,1.26,0,.05-.05.11-.05.17,0,.22,5.72,1.1,5.77,1.1l2.2,1.21c1.27.71,2.8,1.76,3.74,2.04.05,0,.11.05.22.11,1.15.44,4.51,1.65,5.72,1.87,3.96,0,9.13,1.04,9.13,3.19,0,.5-.44.83-1.1,1.04.6.05,1.21.17,1.21.17l.66.38s.33.5.33,1.1ZM39.21,20.08h-.33l.17.17.17.38c0-.28.05-.44,0-.55ZM40.09,18.04c.38-.6.99-1.04,1.87-1.04h.44l1.15-.5c-.55,0-1.76.44-2.2.44h-.33c-.11,0-.22-.05-.38-.05-.27,0-.55.82-.55,1.15ZM46.58,20.74c-.22,2.31-1.65,3.41-1.7,3.68v.33c0,.11.06.17.06.28s0,.22-.06.38l.99-.55c.6-.5,1.54-1.1,2.64-1.1.11,0,.39.05.6.05.6-.71,1.65-1.92,2.97-1.92.38,0,1.43-.93,1.65-1.48-1.04,0-1.54-.72-1.98-1.38-.11-.11-.17-.22,0-.33-.77,0-2.91-.66-2.91-.66l-2.03-.6c0,.27-.06,1.81-.22,3.3ZM55.71,29.81c.99,0,1.48.6,1.48,1.38,0,.5-.77,1.92-1.65,1.92s-1.76-1.1-1.76-1.82c0-.55.22-.99.94-1.26.22-.17.66-.22.99-.22Z"/>
    <path class="cls-1" d="M85.03,34.93c0,.6-.06,1.16-.27,1.43.5.55.66,1.04.66,1.49,0,.82-.55,1.43-.99,1.76l-.55.71c-.5.66-1.1,1.43-1.65,1.59h-.44c.55.55.99,1.04.99,1.04l-2.64.99c-.77-.22-1.21-1.21-1.21-2.03,0-.5.17-.94.55-1.1-.77-.77-.83-2.2-.83-2.64,0-.17,0-.28.06-.28l1.1-.99c0-.22-.33-5.17-1.81-5.17v2.03c-.27,0-.88,0-1.26-1.1-.55-1.48-.33-1.87-1.1-1.87-.55,0-.93.49-1.59.6-2.14.38-.94,1.49-4.34,1.59-1.48.05-1.71.22-1.81.38l-.33.28c-.49.44-1.48.83-1.48.83-.05.55-.22,1.21-.44,1.54-.17.28-.66.66-.66.66.06.28.06.55.06.88,0,1.87-2.64,2.37-2.75,2.47-1.1-.38-2.31-1.26-2.31-2.36,0-.77,1.54-2.09,1.54-2.75,0-.17-.17-.17-.17-1.04,0-1.54,2.03-2.75,2.42-3.46.33-1.21,2.75-5.88,2.75-6.1,0-.38-.11-.71-.11-.71,0,0,.55-1.1,1.1-1.76.49-.88.17-2.31,1.1-2.92.55-.33,1.76-2.69,2.14-2.69,0-.44,1.43-2.8,2.04-2.8-.06,0-.22,0-.22-.28.11-.6.39-1.32.77-1.76.55-.66,1.1-.93,1.65-.93.44,0,.82.17,1.15.38.11.05,1.59-.5,1.59-.5,0,0,.44,2.8.44,3.52.27.17,1.48,1.1,1.48,1.82,0,1.81.17,2.47.17,2.47,0,0,1.26,1.04,1.26,1.54,0,.22-.38,1.04-.38,1.43v.22c.66.66,1.15,1.98,1.15,2.91,0,.22,0,.39-.06.55,1.1.44,1.81,1.1,1.81,1.81,0,.6-.71.93-.94,1.1l.77.17c0,.22,0,2.42.94,2.86,0,0,.66,2.47.66,4.18ZM74.58,26.51c0,.11.06.33.17.5-.11-.44-.11-1.48-.11-2.25v-.93c-.88-.77-.94,0-1.81-2.42-.27.83-.71,1.87-.71,1.87l-.88.27c-.05.22.11.94-1.48,1.87.39-.17.55-.22.55-.22v.44c0,.28,0,.55-.11.88l-.44.77c-.22.44-.55.99-.82,1.32,1.48-.33,1.54-.17,2.25-.55-.06-.11.66-2.31.66-2.31l1.1,1.21c.33-.33,1.54-.33,1.65-.44ZM79.03,31.3c.11,0,.27-.05.44-.22l-.38-.17c-.28.06-.44.11-.44.17.06.11.22.22.39.22Z"/>
    <path class="cls-1" d="M123.41,33.77c0,.88-.93,1.27-2.2,1.71l-.38.17c-.71.22-3.74,1.49-3.79,1.49-1.27.44-2.09.38-2.91.49l-.72.11c-.05.22-.05.38-.33.77-.55.77-1.81,1.21-4.34,2.04l-1.04.38c-.99.33-1.6.44-1.87.44h-.33c-.49.77-1.43,1.54-4.23,1.54s-7.15-.82-8.41-1.04c-.11,0-.17-.05-.22-.05-1.1-.27-3.3-1.32-4.51-2.97,0,0-.99-2.58-.99-3.57,0-.55-.88-2.64-.88-3.74,0-1.16,1.37-2.14,1.37-2.14.06-.06.11-.28.11-.39v-1.15c-.06-.06-.06-.17-.06-.22,0-.77.94-1.43,1.87-2.09-.17-.22-.22-.5-.22-.88,0-1.38,2.8-3.68,3.74-4.46l1.15-1.21,1.27-.22v-.44c0-1.71,8.25-3.02,12.1-3.02,8.52,0,11.6,7.09,11.6,10.34,0,1.65-1.1,1.87-2.47,1.87s-2.25,0-2.25-1.81c0-1.71,2.04-1.98,1.48-2.97-2.58,0-4.67-1.54-4.84-1.76-.55-.28-2.09-.44-2.53-1.71-4.95-1.38-5.33,3.63-9.84,3.63-.22,0-.44-.06-.6-.17-.71.71-.99,1.43-1.59,2.09,0,.16.11.49.16.99.11.44.11.61.11.71,0,1.04-.33,1.1-1.21,1.32l-.88.17c-.66.27-.71.49-.77.93l-.17.83c-.05.17-.16.55-.11.6-.05.22-.17.66-.17.61.22.88,1.32,1.98,1.32,3.63,0,.22,0,.38-.11.61-.06.11-.06.22,0,.33.33,0,1.43.88,2.09,1.54,1.1,0,1.7.83,2.25.83l3.96.28c1.04-.66,3.08-.88,3.68-.88.44,0,2.15-.55,4.18-1.37,2.36-.94,2.69-2.8,4.12-2.8.16,0,.55.11.55.11l.49-.44c.22-.22.6-.61,1.65-1.1l4.12.82c.22,0,.44.11.71.11l.17.05c.44.22.71.38.71,1.1Z"/>
    <path class="cls-1" d="M158.83,35.59c.11-.06.17-.17.22-.33,0,.11-.05.22-.05.33,1.87.11,3.96.22,4.07.22,0,0-4.51,2.69-5.77,2.69h-.38c-.11,0-.22,0-.33-.05-1.38-.17-8.25-1.54-8.96-1.71-.77-.11-2.97-1.15-3.41-1.15-.66,0-.99.17-1.32.17-.93,0-3.19-1.26-4.84-1.26h-.6c-1.87,0-2.69-1.1-4.23-.61-.88,0-4.56-.66-7.26-1.15-.11.17-.11.33-.11.38,0,.55.6,1.26.6,2.42,0,2.31-.44,6.88-1.87,6.88-.77,0-1.65-1.04-1.65-1.04,0,1.32,0,1.48.05,1.48-.6.5-.77.99-1.59.99-.44,0-1.54-.17-1.54-1.59,0-.39.05-.99.17-1.54.22-2.37.44-3.68.88-6.71l.27-1.82c-1.1,0-2.09-.44-2.25-1.48,0-1.1,1.1-1.76,2.8-2.47l.11-.55c.11-.71.17-1.16.17-1.32v-.22c0-.11-.05-.22-.05-.33,0-2.64.93-2.75,2.42-2.8l-1.98-.22c0-.83.33-2.47.33-3.13-.05-1.26.88-2.64.99-3.74.22-1.92,1.81-3.35,3.08-3.35h.22c0-.28,1.43-1.1,2.09-1.1,1.04,0,2.09,1.15,2.09,2.14,0,1.1-.82,1.92-1.48,2.58l-.39.44c-.22.28-1.15,5.44-1.76,8.63l-.27,1.04c.66.05,3.02-2.04,3.63-2.42.94-.6,8.91-9.02,8.91-8.8,0-.33-1.15-.66-2.03-.66h-.77c-1.21,0-2.36-.71-2.36-.71,0-2.09,2.75-2.03,4.29-2.2-.11-.17-.17-.38-.17-.66,0-.6,2.25-1.38,4.62-1.38,3.46,0,5.33.71,5.33,2.75,0,1.04-.33,1.81-.93,2.36l.27.17-2.09,1.71c.44-.99-4.24,4.62-7.81,7.59-.88.71-2.42,1.82-3.68,2.75l-1.32,1.04c.17,0,.27.05.38.05h.39c1.21.11,5.94,2.25,5.94,2.25,1.15.05,3.9.5,3.9.5.28-.06.6-.11.93-.11.99,0,2.31.22,3.58.44,3.52.55,4.34.17,4.34,1.87,0,.83-1.1,2.37-1.1,2.37.05.05,2.31.6,4.29.77.06-.05.06-.17.11-.33l.05-.27c.06.11,1.43.16,2.86.22ZM169.83,37.73c2.86,0,5.83.99,5.83,2.25,0,.99-.66,1.38-2.14,1.38-2.36,0-7.09-1.59-7.09-2.25,0-.44.17-.88.88-1.16.99-.22,1.81-.22,2.53-.22Z"/>
    <path class="cls-4" d="M182.65,34.05c0,.38-.33,1.65-.83,1.59-.22,1.81-6.76,4.29-7.37,4.29,0-.06.05-.11.28-.22-1.98.99-1.38,1.87-4.29,2.53-1.87.44-5.39,2.36-6.21,2.42-.77.17-3.08,1.87-4.34,1.92-.11.55-.93.88-1.54.99.06.05.17.11.17.11,0,0-5.77.66-7.42.66-.99,0-1.43-.27-1.43-.66.05-1.16,3.19-3.58,5.99-4.56,1.71-.61,11-5.17,15.18-7.15l1.59-.77c.99-.83-1.04-1.76-2.31-2.31-.82-.33-1.59-.66-2.09-.94-.55-.33-.99-.44-1.48-.55-1.54-.38-1.92-.99-1.98-1.38-.28.06-.55.06-.88.06-1.43,0-2.09-.44-2.25-.99-.66-.33-2.2-1.04-2.58-1.38l-.6-.6c-.61-.83-1.65-1.71-1.65-2.47,0-.71.66-1.38.66-2.04,0-1.54,5.22-5.11,6.71-6.1l.17-.05c.61-.38,1.43-.83,2.2-1.1l.66-.38c.6-.33,1.76-1.76,1.81-1.71,0,0,1.32.05,1.48.6.06-1.04.88-1.43,1.82-1.65,3.52-1.21,10.12-4.4,13.36-4.4,1.87,0,2.8,1.1,2.8,1.92,0,1.26-2.97,2.14-2.97,3.08,0,.72-4.12,3.63-5.39,3.79-.33.05-.6.11-.83.11-.05-.17-.17-.33-.33-.55.11.22.22.39.22.55h-.33c-.77,0-1.1-.17-1.1-.5s.44-.88,1.1-1.49l-.83.28c-.17.55-.99,1.87-4.07,2.47-2.53.71-5.44,1.81-8.47,5.06.5.22.99.66,1.43,1.1,1.04.88,2.09,1.26,3.35,2.09l.83.55.88.38c.77.33,1.48.66,1.48,1.26,0,.17-.05.39-.22.66.11-.17.33-.22.55-.22.99,0,4.12,1.65,6.54,2.91,1.98,1.1,2.53,2.04,2.53,2.75ZM179.07,16.89l-.11-.17c.11.05.11.11.11.17Z"/>
    <path class="cls-4" d="M218.34,13.31c0,.61-.33,1.26-1.04,1.43v.33s-1.15.5-1.71.5c-.33,0-.6,0-.82-.05-.17.17-.5.33-.88.33v-1.92c-.28.17-1.71.93-2.25,1.15-.22.61-.55,1.04-1.43,1.04-1.1,0-1.76-.27-2.09-.33-.99.11-3.41.5-6.27.5-.88,0-1.65-.11-2.25-.11h-.55v.22c0,.71-.55.99-.55,1.38.22.33.5.88.5,1.54s-.38,1.16-.38,1.71v.5c.05.38.17.77.17.83,0,.27-.66,2.36-.83,2.36.33.27.71.6.71,1.48,0,.28-.66.44-.66,2.31,0,1.16.88,1.87.88,2.58,0,1.32-1.43,1.49-1.37,2.53.17.33.27.6.27,1.04,0,.22-.17.88-.17.88l.06.22c1.26,0,1.26.66,1.26,1.32v.55c0,.11.05.17.05.22,0,1.04-.6,1.32-1.65,1.48l-.44.05-.22.17c-.22.06-.44.22-.66.22-.05,0-.11,0-.17-.06v.28c0,1.1-1.04,1.81-1.59,1.81-.5,0-.66-.05-.77-.05,0,0-.55.77-1.76,1.76l-1.43-1.04.71-1.92c0-1.71.55-3.3.55-4.29v-.33c0-.11-.05-.22-.05-.44,0-.6.05-1.48.17-2.14.11-.88.22-1.04.22-1.04v-.99c0-.49.05-.88.22-1.15-.33-.33-.44-.83-.44-1.21v-.93c0-.66.11-1.54.99-1.87l-.38-.5c-.71-.88-1.76-1.43-1.76-1.76,0-.44,1.54-.05,1.65-.88l-.49-.27,1.1-.22c-.33-.27-1.26-1.37-1.26-1.54,0-.22.99-.94.99-1.49,0-.17-.05-.38-.05-.55v-1.54c-2.64.11-4.12.5-4.84.71-.77.28-5.55,1.49-6.65,1.49-.61,0-1.04,0-1.16-.55-1.21.33-2.42.55-2.97.55-.99,0-2.03-.44-2.03-1.32,0-.55.27-.99,1.1-1.26l.5-.22c.05-1.32,1.26-1.38,2.42-1.38.22,0,.33.05.44.05-.05-.16-.05-.33-.05-.38,0-1.38,2.03-1.43,3.85-1.43.33,0,.61.11.72.44.55-.66,2.2-1.21,3.9-1.21.88,0,1.7.05,2.14.05h.77c.55-.55,2.31-.83,3.13-.88.17-.17.44-.27.77-.33.88-.05.99-.11.99-.11l.05.33c.28-.27.66-.44,1.32-.44l2.09.17c.33,0,.6-.05.93-.17.61-.22,1.49-.5,2.53-.5.44,0,.72.17,1.1.22,0-.05,4.84-.6,5-.6l-1.48,1.32c2.36-.93,5.66.55,5.66.28,0-.22-.66-.5-1.49-.77.28-.11.55-.28.88-.28.39,0,.88.22,1.27.44.22-.33.55-.61,1.1-.61.27,0,.55.22.99.22l.49-.17,1.71.88.38.44s.33.5.33.93ZM180.51,17.38l1.92-.88c-.77.33-2.09.61-2.09.83,0,.05.05.05.17.05ZM195.91,28.05l-.39-.5s-.44.28-.44.61c.05-.11.17-.22.38-.22s.33.06.44.11Z"/>
    <path class="cls-4" d="M235.34,34.93c0,.6-.05,1.16-.28,1.43.5.55.66,1.04.66,1.49,0,.82-.55,1.43-.99,1.76l-.55.71c-.49.66-1.1,1.43-1.65,1.59h-.44c.55.55.99,1.04.99,1.04l-2.64.99c-.77-.22-1.21-1.21-1.21-2.03,0-.5.17-.94.55-1.1-.77-.77-.82-2.2-.82-2.64,0-.17,0-.28.05-.28l1.1-.99c0-.22-.33-5.17-1.81-5.17v2.03c-.28,0-.88,0-1.26-1.1-.55-1.48-.33-1.87-1.1-1.87-.55,0-.94.49-1.59.6-2.15.38-.94,1.49-4.34,1.59-1.49.05-1.71.22-1.82.38l-.33.28c-.5.44-1.49.83-1.49.83-.05.55-.22,1.21-.44,1.54-.17.28-.66.66-.66.66.05.28.05.55.05.88,0,1.87-2.64,2.37-2.75,2.47-1.1-.38-2.31-1.26-2.31-2.36,0-.77,1.54-2.09,1.54-2.75,0-.17-.16-.17-.16-1.04,0-1.54,2.03-2.75,2.42-3.46.33-1.21,2.75-5.88,2.75-6.1,0-.38-.11-.71-.11-.71,0,0,.55-1.1,1.1-1.76.49-.88.16-2.31,1.1-2.92.55-.33,1.76-2.69,2.14-2.69,0-.44,1.43-2.8,2.03-2.8-.05,0-.22,0-.22-.28.11-.6.38-1.32.77-1.76.55-.66,1.1-.93,1.65-.93.44,0,.83.17,1.15.38.11.05,1.59-.5,1.59-.5,0,0,.44,2.8.44,3.52.27.17,1.48,1.1,1.48,1.82,0,1.81.17,2.47.17,2.47,0,0,1.27,1.04,1.27,1.54,0,.22-.39,1.04-.39,1.43v.22c.66.66,1.16,1.98,1.16,2.91,0,.22,0,.39-.05.55,1.1.44,1.81,1.1,1.81,1.81,0,.6-.71.93-.93,1.1l.77.17c0,.22,0,2.42.93,2.86,0,0,.66,2.47.66,4.18ZM224.89,26.51c0,.11.05.33.17.5-.11-.44-.11-1.48-.11-2.25v-.93c-.88-.77-.93,0-1.81-2.42-.28.83-.71,1.87-.71,1.87l-.88.27c-.06.22.11.94-1.49,1.87.38-.17.55-.22.55-.22v.44c0,.28,0,.55-.11.88l-.44.77c-.22.44-.55.99-.83,1.32,1.49-.33,1.54-.17,2.25-.55-.05-.11.66-2.31.66-2.31l1.1,1.21c.33-.33,1.54-.33,1.65-.44ZM229.34,31.3c.11,0,.28-.05.44-.22l-.38-.17c-.27.06-.44.11-.44.17.05.11.22.22.38.22Z"/>
    <path class="cls-4" d="M279.12,48.01c0,.44-.27,1.54-1.48,1.54-.88,0-1.92-1.04-1.92-1.04-.33-.22-.61-.5-.61-1.04,0-.33.06-.55.17-.71-1.15,0-2.2.66-3.41.66-.5,0-1.92,0-1.92-.66,0,0-1.59.17-2.14.17-1.26,0-2.8-.27-4.18-1.15-.99-.61-7.42-4.34-8.74-4.62-.77-.38-2.53.11-3.19-1.1-.33-.55-.66-.93-1.04-1.1-.17.05-.6.11-.66.17-1.04,0-2.8-1.82-3.25-1.82-1.26,0-2.09-.82-3.96-1.54-.28.5-.71,1.15-.83,1.21.22.38.28.38.28.38.22.38.38.83.38,1.54s-.55,1.04-.55,1.54c.22.28.38.61.38,1.04,0,.94-.88,1.49-1.54,1.87.05-.05.11-.05.11-.22-.11.11-.17.27-.17.33-.33.77-.88,1.92-1.71,1.92-.11,0-.28-.05-.38-.11h-1.1l-.28-2.47.28-1.32.33-2.58-.5-1.82.6-2.2s-.33.33-.33.93c-.17-.33-.33-.77-.33-1.38,0-.33.06-.66.22-.99l-.39-.06c-.27-.05-.33,0-1.04-.44h-.66c-1.16,0-2.42-.17-2.42-1.59,0-.94.93-1.59,1.71-1.92l.38-.83c.05,0,1.65-.55,2.8-.88l.55-2.8.88,1.1c-.33-.66-1.16-2.8-1.16-3.02v-.55c-1.26-.99-3.9-4.62-3.9-6.54,0-.88.38-2.14,1.32-2.97.99-.88,3.96-2.47,4.73-2.47.55,0,.99.33,1.15.71.5,0,1.54-.22,2.31-.22,1.71,0,5.66.99,5.72.99,0,0,.38-.27.99-.27.94,0,1.32.77,2.42,1.32-.05-.11-.05-.27-.05-.38,1.76,0,1.92,1.16,3.24,1.49l2.09.99v.88c.17.17.28.22.38.28l.61.99c0,.99.33,1.6.33,2.31,0,2.64-1.38,3.13-2.58,3.63-1.26.55-2.31,3.02-4.01,3.02-4.01,0-1.15,1.32-5.72,2.97-.22.17-.44.17-.66.17h-.33c-.17,0-.33,0-.44.06-1.1.77-1.59.93-2.03.93l-.55.22.55.28c.38.27.83.55.99.6.11,0,.33-.05.55-.05.99,0,3.74,2.47,4.84,3.02.71.38,1.04.55,1.04,1.26,0,.05-.05.11-.05.17,0,.22,5.72,1.1,5.77,1.1l2.2,1.21c1.26.71,2.8,1.76,3.74,2.04.06,0,.11.05.22.11,1.15.44,4.51,1.65,5.72,1.87,3.96,0,9.13,1.04,9.13,3.19,0,.5-.44.83-1.1,1.04.6.05,1.21.17,1.21.17l.66.38s.33.5.33,1.1ZM238.48,20.08h-.33l.17.17.17.38c0-.28.06-.44,0-.55ZM239.36,18.04c.39-.6.99-1.04,1.87-1.04h.44l1.16-.5c-.55,0-1.76.44-2.2.44h-.33c-.11,0-.22-.05-.39-.05-.27,0-.55.82-.55,1.15ZM245.84,20.74c-.22,2.31-1.65,3.41-1.71,3.68v.33c0,.11.06.17.06.28s0,.22-.06.38l.99-.55c.61-.5,1.54-1.1,2.64-1.1.11,0,.38.05.61.05.6-.71,1.65-1.92,2.97-1.92.39,0,1.43-.93,1.65-1.48-1.04,0-1.54-.72-1.98-1.38-.11-.11-.17-.22,0-.33-.77,0-2.92-.66-2.92-.66l-2.04-.6c0,.27-.05,1.81-.22,3.3ZM254.97,29.81c.99,0,1.48.6,1.48,1.38,0,.5-.77,1.92-1.65,1.92s-1.76-1.1-1.76-1.82c0-.55.22-.99.93-1.26.22-.17.66-.22.99-.22Z"/>
  </g>
  <path class="cls-4" d="M206.59,16.14c2.1-.16,4.2-.17,6.3-.04.62.04,1.34-.31,1.77-.73s.76-1.15.73-1.77c-.06-1.42-1.1-2.41-2.5-2.5-2.1-.13-4.21-.12-6.3.04-.67.05-1.28.25-1.77.73-.43.43-.76,1.15-.73,1.77s.24,1.32.73,1.77,1.11.78,1.77.73h0Z"/>
  <path class="cls-4" d="M242.07,15.22c-1.47.03-2.97.5-4.15,1.39-.27.2-.48.41-.57.75-.08.3-.05.7.13.96s.43.5.75.57.7.07.96-.13c.4-.3.84-.55,1.3-.75l-.3.13c.5-.21,1.02-.35,1.56-.42l-.33.04c.22-.03.44-.04.66-.05.65-.01,1.28-.56,1.25-1.25s-.55-1.27-1.25-1.25h0Z"/>
  <path class="cls-4" d="M238.91,20.71c1.61,0,1.61-2.5,0-2.5s-1.61,2.5,0,2.5h0Z"/>
  <path class="cls-4" d="M238.56,21.24c1.61,0,1.61-2.5,0-2.5s-1.61,2.5,0,2.5h0Z"/>
  <path class="cls-4" d="M228.25,30.65c.07.01.14.03.21.04.1.03.09.03-.01-.01-.1-.05-.11-.05-.02,0,.06.03.13.09.19.11-.14-.12-.18-.15-.11-.08.03.02.05.05.08.07l.05.05c.09.1.07.07-.06-.08,0,.05.09.15.11.19.11.18-.06-.2-.03-.07.02.1.08.38.03-.01l.37-.88c.17-.16.37-.24.61-.24.22.04.27.05.14.01.18.05.35.16.44.33.06.18.07.2.03.07-.03-.14-.02-.11.01.09,0,0,0-.22,0-.25.03-.48.08-.97.12-1.45.08-.98.17-1.95.25-2.93.06-.65-.61-1.28-1.25-1.25-.72.03-1.19.55-1.25,1.25-.08.96-.16,1.92-.25,2.88-.09,1.03-.39,2.33.4,3.17.45.47,1.16.71,1.8.52.47-.14.89-.49,1.03-.97.09-.33.03-.7-.08-1.02-.33-.94-1.15-1.77-2.16-1.93-.34-.05-.65-.06-.96.13-.26.15-.51.45-.57.75-.14.6.18,1.43.87,1.54h0Z"/>
  <path class="cls-4" d="M194.17,27.26c.17,1.39.1,2.77-.26,4.12s-.95,2.56-1.54,3.8l2.28.96c.19-1.12.38-2.23.58-3.35.16-.9.29-1.77.85-2.5l-2.28-.96c-.56,1.47-.85,3.05-.87,4.62,0,.3.04.62,0,.91-.05.18-.07.22-.03.14.03-.07.01-.04-.05.08.1-.15-.1.12-.13.15-.46.47-.95.85-1.35,1.38s-.08,1.4.45,1.71c.64.38,1.3.09,1.71-.45-.09.11.17-.16.21-.19.12-.11.24-.21.36-.32.2-.18.4-.36.57-.56.58-.68.78-1.44.77-2.32-.01-1.56.22-3.03.78-4.5.22-.57-.19-1.26-.72-1.47-.63-.25-1.17,0-1.56.51-.65.84-.9,1.9-1.08,2.92-.21,1.18-.41,2.35-.61,3.53-.11.61.11,1.23.72,1.47.54.22,1.29.06,1.56-.51.68-1.42,1.37-2.87,1.79-4.4s.55-3.19.35-4.78c-.08-.67-.52-1.25-1.25-1.25-.61,0-1.33.58-1.25,1.25h0Z"/>
  <path class="cls-4" d="M176.73,15.91c.53.61,1.22,1.03,1.96,1.33.28.11.57.19.87.24.25.04.49.07.74.08.18,0,.35-.02.53,0l-.33-.04s.08.02.12.04l-.3-.13.04.02-.25-.2s.05.04.07.06l-.2-.25s.04.05.05.08l-.13-.3v.04c0-.11-.02-.22-.03-.33,0,.03,0,.06,0,.09l.04-.33-.02.04.13-.3-.02.03.2-.25-.02.02.25-.2-.03.02.3-.13s-.04.01-.06.01l.33-.04h-.03c.11.01.22.03.33.04-.02,0-.04,0-.06-.02l.3.13h-.03c.08.05.17.12.25.18l-.02-.02.2.25-.02-.02.13.3v-.03c0,.11.02.22.04.33v-.03c-.02-.65-.56-1.28-1.25-1.25s-1.27.55-1.25,1.25c.03.9.86,1.55,1.75,1.34.77-.19,1.22-.99,1.02-1.75-.19-.72-.85-1.13-1.56-1.17-.28-.02-.56,0-.85-.03l.33.04c-.33-.05-.64-.14-.95-.26l.3.13c-.3-.13-.59-.3-.85-.5l.25.2c-.19-.15-.36-.31-.51-.49-.2-.23-.59-.37-.88-.37s-.67.14-.88.37-.38.55-.37.88.14.62.37.88h0Z"/>
  <g>
    <path class="cls-4" d="M193.84,34.05c.21,2.26-.18,4.57-1.13,6.63-.22.48-.47.95-.6,1.46.41.27.88-.23,1.12-.66.6-1.11,1.21-2.24,1.49-3.48.17-.78.21-1.57.24-2.37.09-1.93.17-3.85.26-5.78.01-.25-.03-.56-.26-.63-.99,1.01-1.1,2.55-1.2,3.95s-.34,2.97-1.45,3.83c0-1.75.42-3.5,1.21-5.06"/>
    <path class="cls-4" d="M192.59,34.05c.11,1.33.04,2.65-.27,3.95s-1.03,2.5-1.41,3.81c-.14.49.08,1.18.57,1.41,1.6.75,2.55-.57,3.22-1.84.74-1.42,1.27-2.83,1.43-4.43.15-1.52.16-3.05.23-4.58.03-.75.07-1.51.1-2.26s-.13-1.54-.87-1.96c-.47-.26-1.14-.22-1.51.2-1.12,1.22-1.4,2.76-1.53,4.35-.1,1.21-.11,2.59-1.12,3.43l2.13.88c.02-1.54.36-3.05,1.03-4.43s-1.45-2.71-2.16-1.26c-.88,1.79-1.35,3.7-1.38,5.69-.01,1.16,1.34,1.54,2.13.88,1.22-1.01,1.59-2.57,1.76-4.06.14-1.21,0-2.76.89-3.72l-1.51.2.12.07-.45-.45c-.02-.27-.03-.3-.03-.07l-.02.38-.04.88c-.02.5-.04,1.01-.07,1.51-.05,1.12-.09,2.25-.15,3.37-.05,1.01-.18,1.97-.57,2.92-.18.45-.41.88-.63,1.31-.1.18-.29.42-.34.63-.07.33-.26.07.1.1l.63.17-.14-.06.57,1.41c.2-.69.55-1.32.82-1.98s.48-1.35.64-2.05c.32-1.44.43-2.92.31-4.39-.06-.67-.53-1.25-1.25-1.25-.63,0-1.31.57-1.25,1.25h0Z"/>
  </g>
  <path class="cls-4" d="M237.4,21.28c-.14,1.56.16,3.09.32,4.63.02.17.03.34.04.52,0,.07,0,.15,0,.22.02-.1.01-.08-.01.06-.05.16-.09.32-.16.48.08-.19-.07.15-.08.16-.33.71-.63,1.37-.64,2.17-.01.65.58,1.28,1.25,1.25s1.24-.55,1.25-1.25c0-.15,0-.17-.01-.04.01-.08.03-.16.06-.24.02-.06.14-.38.11-.32s.12-.25.15-.31c.1-.21.19-.43.29-.65.28-.67.35-1.34.28-2.05-.16-1.54-.47-3.07-.32-4.63.06-.65-.62-1.28-1.25-1.25-.73.03-1.19.55-1.25,1.25h0Z"/>
  <path class="cls-4" d="M224.79,14.59c.65.55.65,1.51.83,2.3.25,1.12.76,2.15,1.29,3.15.6,1.13.89,2.07,1.1,3.33.22,1.34.78,2.55,1.23,3.81.89,2.5,1.34,5.11,1.5,7.75.12,1.88.57,4.7-.96,6.14-1.76,1.66.9,4.31,2.65,2.65,1.97-1.86,2.21-4.59,2.14-7.15-.09-3.19-.46-6.44-1.41-9.5-.45-1.42-1.14-2.78-1.44-4.24s-.56-2.76-1.27-4.14c-.6-1.16-1.07-2.19-1.34-3.47s-.66-2.44-1.65-3.28c-1.83-1.55-4.5,1.09-2.65,2.65h0Z"/>
  <path class="cls-4" d="M173.39,41.55c3.22,0,3.22-5,0-5s-3.22,5,0,5h0Z"/>
  <path class="cls-4" d="M170.46,38.55v.08c.03-.22.06-.44.09-.66l-.02.07.25-.6s-.05.09-.08.13l.39-.51s-.07.08-.12.11l.51-.39c-.16.13-.33.23-.52.31l.6-.25c-.08.03-.16.06-.24.09-1.2.37-1.96,1.5-1.79,2.74.07.52.29,1.07.69,1.44.46.42,1.12.81,1.77.73.14-.02.27,0,.4,0,.32.01.66-.03.97-.11.47-.11.9-.4,1.31-.64.55-.32,1.1-.65,1.66-.97.67-.39,1.31-.79,1.92-1.28.2-.16.38-.33.54-.53.19-.24.4-.48.55-.74.16-.28.27-.59.4-.89.23-.56.04-1.43-.25-1.93s-.9-1.01-1.49-1.15c-.64-.15-1.36-.11-1.93.25l-.51.39c-.31.31-.52.68-.64,1.1l-.03.08.25-.6c-.07.15-.15.29-.25.43l.39-.51c-.18.23-.38.42-.61.6l.51-.39c-.56.42-1.18.74-1.78,1.09s-1.23.77-1.87,1.09l.6-.25c-.06.03-.12.04-.18.05l.66-.09c-.21.02-.42-.02-.62,0l.66,4.91c1.43-.44,2.87-1.55,2.82-3.2-.02-.65-.26-1.3-.73-1.77-.43-.43-1.15-.76-1.77-.73s-1.32.24-1.77.73-.75,1.1-.73,1.77h0Z"/>
  <path class="cls-4" d="M158.82,47.59c2.39-.98,4.99-1.3,7.38-2.26,2.62-1.06,5.14-2.4,7.61-3.76,1.15-.63,1.61-2.31.9-3.42s-2.19-1.57-3.42-.9-2.44,1.31-3.68,1.93c-.58.29-1.16.57-1.74.85-.23.11-.46.22-.69.33-.15.07-.3.14-.45.2.22-.09.19-.08-.08.03-2.34.88-4.84,1.22-7.15,2.17-1.21.49-2.2,1.68-1.75,3.08.38,1.16,1.78,2.28,3.08,1.75h0Z"/>
  <path class="cls-4" d="M230.44,34.31c3.22,0,3.22-5,0-5s-3.22,5,0,5h0Z"/>
  <path class="cls-4" d="M229.79,34.51c3.22,0,3.22-5,0-5s-3.22,5,0,5h0Z"/>
  <path class="cls-2" d="M253.77,29.42c-.03.86.17,1.73.59,2.49.11.2.29.43.52.4.21-.02.34-.22.44-.41.59-1.08,1.18-2.15,1.77-3.23.12.89-.36,1.78-1.04,2.35-.37.31-.81.56-1.14.92s-.53.9-.31,1.34.97.54,1.17.09"/>
  <path class="cls-4" d="M169.05,16.6c.65,0,1.59-.18,1.9-.85.27-.6-.24-1.09-.85-1.09-.65,0-1.59.18-1.9.85-.27.6.24,1.09.85,1.09h0Z"/>
  <path class="cls-4" d="M169.5,15.49c-.26.15-.55.49-.56.81,0,.1,0,.22.03.31.08.21.16.32.36.45.44.29,1.02.24,1.51.14.2-.04.4-.12.59-.2s.35-.18.51-.28c.07-.04.13-.09.2-.14.28-.23.52-.47.71-.79.08-.14.13-.3.17-.45.02-.07.04-.15.04-.22.02-.22,0-.47-.07-.68-.05-.14-.12-.28-.21-.4s-.22-.23-.33-.33c-.06-.05-.13-.09-.2-.13-.11-.05-.23-.11-.35-.15-.14-.05-.29-.07-.44-.09-.29-.05-.61-.04-.9,0-.33.05-.64.12-.95.23-.35.12-.7.26-.95.54-.16.18-.34.5-.25.76s.32.45.6.53c.35.1.76.11,1.1,0,.18-.06.37-.12.56-.16l-.39.07c.1-.02.21-.03.31-.03h-.37c.07,0,.15,0,.22.02l-.33-.06c.06.01.12.03.18.06l-.28-.12c.07.03.14.08.2.13l-.2-.18c.07.07.13.14.18.23l-.12-.23c.06.12.09.25.1.38v-.26c0,.13-.02.25-.07.37l.09-.26c-.04.1-.09.19-.15.28l.18-.24c-.05.07-.11.14-.18.2l.26-.22c-.08.06-.16.12-.24.17l.32-.18c-.07.04-.14.07-.22.1l.38-.14c-.05.02-.11.04-.16.05l.39-.07s-.04,0-.06,0h.37s-.02,0-.03,0l.33.06h-.03c.09.03.18.08.28.12-.02,0-.03-.01-.04-.02l.2.18s-.02-.02-.02-.03l.12.23s-.01-.03-.02-.05v.26s.01-.02.02-.04l-.09.26s0-.02.01-.03l-.18.24h.01c-.09.06-.17.14-.26.21h.02c.14-.1.26-.21.34-.35.1-.11.15-.23.18-.38.04-.26-.11-.53-.33-.66-.29-.17-.65-.23-.98-.19l-.39.07c-.25.07-.48.17-.7.32h0Z"/>
  <path class="cls-4" d="M177.23,18.2c.45.06.89.07,1.35.05.18,0,.35-.02.53-.04.15,0,.18,0,.08,0,.07,0,.15,0,.22,0,.11,0,.12,0,.03,0,.06.01.12.02.18.04.09.03.17.05.26.1.21.11.36.25.46.47l2.08-.96c-.24.03-2.79.18-2.79.07l.19.04s-.02,0-.02-.03c.01-.03-.03-.13-.03-.18,0-.16.05-.33.01-.49-.03-.15-.14-.28-.27-.37-.07-.05-.39-.15-.34-.28l-.32.29c-.15.08.19-.09.23-.11.05-.02.46-.19.19-.08.24-.09.47-.18.71-.26.08-.03.16-.05.24-.08-.18.06-.19.06-.02,0,.12-.04.24-.07.36-.11.28-.08.55-.17.83-.25,1.14-.34,2.29-.68,3.43-1.03.29-.09.58-.18.85-.33.14-.07.4-.21.46-.37.13-.38-.6-.34-.8-.32-1.07.13-2.13.33-3.17.65-.28.09-1.42.37-1.33.83.08.42,1.39.11,1.57.05.17-.05.33-.1.5-.15.08-.02.17-.04.25-.07.28-.08-.12.02.06-.02s.34-.07.51-.1c.09-.01.17-.03.26-.04.23-.04-.32.04.09-.01l.51-1.02c-1.25.37-2.5.75-3.75,1.12-1.34.4-2.71.79-3.95,1.45-.29.16-.77.4-.56.81.12.23.41.24.54.43.09.13.02.37.02.51,0,.2.03.36.21.49.24.17.64.15.92.16.31.02.63.02.95.02.73,0,1.47-.04,2.2-.12.5-.06,1-.17,1.46-.39.12-.05.73-.33.62-.57-.27-.56-.83-.84-1.42-.95-.42-.07-.84-.07-1.26-.05-.2,0-.4.02-.59.04h-.13c.07,0,.07,0-.02,0-.07,0-.14,0-.21,0-.67-.09-1.42.07-2.02.37-.19.09-.52.23-.6.44-.06.17.06.28.24.3h0Z"/>
  <path class="cls-4" d="M194.68,23.21c.13.35.05.65.03,1.01-.02.39.02.77.1,1.16.15.72.3,1.35.16,2.09-.31,1.56-.82,3.1-1.24,4.64-.27.98,2.63.57,2.89-.38.22-.81.44-1.62.66-2.43s.48-1.57.61-2.38-.01-1.53-.18-2.32c-.08-.36-.12-.7-.08-1.08s.08-.74-.05-1.1c-.21-.57-1.2-.43-1.63-.3-.34.1-1.47.51-1.26,1.07h0Z"/>
  <path class="cls-4" d="M195.71,29.08c.04-.74.05-1.49,0-2.23-.04-.7-.15-1.4-.17-2.1-.06-1.37.71-2.61.62-3.98-.05-.66-2.96-.12-2.9.78.05.69-.16,1.33-.35,1.99s-.3,1.31-.27,2,.14,1.4.17,2.1c.04.74.03,1.49,0,2.23-.03.56,2.85.17,2.9-.78h0Z"/>
  <path class="cls-4" d="M227.25,27.27c-1.64-.16-3.32.41-4.61,1.41-.29.22-.42.62-.09.86.39.28,1.02.19,1.44.08.64-.16,1.28-.33,1.92-.49l-1.09-1.14c-.4.22-.79.44-1.19.66-.26.14-.64.46-.55.81.1.36.59.4.88.42.57.05,1.13.06,1.7.03v-1.4c-.3.13.1,0,.17-.02.31-.1.49.09.54.57l-.09.07c.25-.06.54-.35.73-.51.37-.3,1.01-.89.56-1.37-.41-.45-1.31-.41-1.86-.36-.65.07-1.26.29-1.87.51-.27.1.09,0-.08.02-.05.01-.36.09-.08.03-.48.11-.94.21-1.37.46-.14.08-.28.17-.39.29-.21.22.02.03.15-.03.25-.12-.06.02-.12.04-.13.04-.26.08-.39.12-.54.16-1.09.3-1.64.42-.43.1-.84.17-1.43.26-.54.08-1.51.34-1.65.98s.88.66,1.25.61c1.22-.18,2.44-.43,3.63-.77.66-.19,1.35-.36,1.95-.71.16-.09.32-.21.46-.34.39-.37-1.27.35-.51.2.38-.08.73-.18,1.1-.31.11-.04.22-.07.33-.11.17-.06-.2.05.08-.03.08-.02.43-.06.13-.04-.22.01-.16.03-.26-.25-.13-.38-.1-.23-.3-.07.1-.08-.21.13-.2.12-.25.16-.52.35-.7.6-.43.61,0,1.07.63,1.18.79.14,1.67-.06,2.38-.38.32-.14.9-.45.88-.87-.02-.4-.54-.54-.88-.53-.57.03-1.13.02-1.7-.03l.33,1.23c.4-.22.79-.44,1.19-.66.31-.17.78-.62.45-.99-.35-.38-1.11-.26-1.54-.15-.64.16-1.28.33-1.92.49l1.35.95c-.1.08.03-.02.06-.04,0,0,.32-.18.19-.11-.12.06.12-.05.14-.06.2-.1-.32.09.07-.02.14-.04.15-.03,0,0,.09-.01.18-.03.27-.03-.2.02.01,0,.1,0,.11,0,.22.01.33.02.62.06,1.56-.25,1.91-.79.39-.59-.34-.79-.78-.84h0Z"/>
  <path class="cls-4" d="M239.07,27.92c-.08,1.24.01,2.49.27,3.71s2.94.63,2.92-.5c-.05-2.73-3.69-2.51-5.09-.96-.75.84-.95,1.9-.86,2.99.09,1.24.34,2.35.22,3.6s.03,2.39.13,3.62c.08.98-.27,2.09.03,3.05.34,1.08,1.56,1.43,2.58,1.21,1.23-.26,2.11-1.09,2.44-2.29.36-1.3.44-2.7.23-4.03s-.65-2.57-.55-3.9c.12-1.47-2.83-1.05-2.93.23-.15,1.9.72,3.67.67,5.54-.01.5-.09.99-.17,1.49-.04.22-.06.44-.12.65-.12.45-.36.46.31.42.84-.05.38.08.39-.28,0-.18-.02-.36,0-.54.03-.4.09-.79.09-1.19,0-.97-.21-1.93-.24-2.9s.2-1.95.15-2.93-.38-1.94-.3-2.91c.02-.2.04-.41.11-.6.03-.09.22-.31.22-.38,0-.16-.41-.03-.42.02,0,0,.2.23.21.3l2.92-.5c-.23-1.05-.31-2.09-.24-3.16.09-1.47-2.85-1.05-2.93.23h0Z"/>
  <path class="cls-4" d="M242.49,15.96c-.39.76-.61,1.58-.69,2.43-.02.17.46.21.51.21.34.02.74-.05,1.06-.14s.7-.21.99-.41l.2-.15c.1-.07.14-.17.14-.29,0-.1.02-.19.03-.29l-.02.14c.1-.7.32-1.37.64-2,.09-.18-.11-.28-.24-.32-.27-.08-.66-.03-.92.02-.38.07-.76.17-1.1.35-.21.11-.48.23-.59.45h0Z"/>
  <path class="cls-4" d="M236.52,16.53c-.73.89-.5,2.25-.13,3.25s1.05,1.96,1.92,2.62c.52.4,1.35.28,1.92.03.28-.13.62-.29.78-.56.1-.17.2-.44,0-.59-.57-.44-1.04-.98-1.41-1.59l.1.18c-.45-.78-.75-1.67-.74-2.57v.21c0-.19.02-.38.07-.56,0-.03.1-.26.01-.08.05-.09.11-.18.18-.26.14-.17.15-.43,0-.59-.17-.19-.55-.25-.78-.25-.7,0-1.46.24-1.91.79h0Z"/>
  <path class="cls-3" d="M53.93,31.33c-.17.39-.02.79.3,1.05.22.18.53.24.8.26.68.04,1.42-.15,2.03-.44.49-.23.92-.55.99-1.11.04-.32-.11-.66-.4-.82-.18-.1-.39-.1-.58-.09-.3,0-.61.06-.9.14-.47.13-1,.3-1.31.7-.39.49-.42,1.25-.07,1.77.12.17.31.19.51.2.34.02.73-.05,1.06-.14s.7-.21.99-.41c.12-.08.4-.25.34-.43-.38-1.12-1.05-2.13-1.92-2.94l-.17-.07c-.13-.03-.27-.04-.41-.03-.3,0-.61.06-.9.14-.24.07-.48.15-.71.26-.13.06-.54.26-.59.45-.17.61-.12,1.25.18,1.81.33.62.84,1.03,1.49,1.26.22.08.52.03.74,0,.32-.04.65-.12.95-.23.21-.08.42-.17.61-.29.06-.04.42-.28.34-.43-.78-1.43-1.84-2.7-3.11-3.71-.16-.13-.56-.11-.74-.09-.32.03-.63.1-.94.19-.27.08-.56.18-.8.35-.09.06-.44.28-.34.43.81,1.17,1.87,2.14,3.14,2.8.22.11.5.11.74.09.37-.03.78-.12,1.13-.25.27-.1.61-.22.81-.44.09-.09.24-.29.05-.38-1.06-.55-1.99-1.32-2.73-2.25l.08.1c-.11-.14-.22-.29-.32-.44l-2.81.88c.7.56,1.33,1.19,1.89,1.89l-.08-.1c.43.54.81,1.11,1.14,1.72l2.64-.95s-.06-.02-.09-.03l.17.07c-.36-.15-.65-.38-.9-.68l.08.1c-.4-.51-.6-1.16-.5-1.81l-.02.13c.01-.08.03-.16.05-.24l-2.79.75c.25.24.49.49.7.76l-.08-.1c.49.63.87,1.33,1.13,2.08l2.9-.78c-.21-.3-.28-.65-.23-1.01l-.02.13c.04-.23.13-.44.27-.63l-2.79.75c.07.04.12.08.17.14l-.08-.1c.13.17.17.37.14.57l.02-.13c-.02.13-.06.24-.14.35l.12-.15s-.05.04-.06.07c-.04.07.22-.15.1-.07l1.5-.47h.22c.25,0,.18.02.08-.02l.17.07c-.13-.05-.23-.13-.32-.23l.08.1c-.12-.15-.19-.33-.18-.53l-.02.13c0-.06.03-.11.05-.17.08-.18-.09-.27-.24-.31-.27-.07-.65-.02-.92.03-.38.07-.76.17-1.1.34-.2.1-.5.23-.59.45h0Z"/>
  <path class="cls-3" d="M34.42,17.7c1.14,0,1.44.68,1.68,1.7.26,1.11.31,2.25.29,3.39-.03,1.99.01,4.28-1.42,5.84-1.03,1.12-2.55,2.05-2.93,3.63-.2.85.01,1.6.68,2.16.79.66,1.24,1.42.99,2.48-.19.81,2.68.37,2.87-.45.21-.9.07-1.78-.53-2.51-.35-.43-.9-.64-1.11-1.18-.18-.47-.05-1.02.15-1.45.79-1.74,2.8-2.54,3.57-4.35.4-.94.48-1.98.54-2.99.08-1.24.14-2.5.03-3.74-.08-.98-.19-2.41-.9-3.18-.67-.71-1.81-.7-2.71-.7-.56,0-1.6.22-1.93.73s.3.63.72.63h0Z"/>
  <path class="cls-3" d="M53.64,32.8c-.08.28.02.58.19.81.18.25.49.41.78.51.45.16.99.13,1.44,0s.93-.37,1.27-.73.55-.87.58-1.38c.02-.44-.05-.89.09-1.31.08-.25-.15-.53-.33-.65-.26-.17-.67-.21-.98-.18-.38.05-.78.16-1.09.39l-.26.22c-.14.14-.23.3-.27.49-.2.59.02,1.23-.19,1.83l.09-.25c-.04.1-.08.19-.15.28l.18-.24c-.04.05-.08.1-.13.14l.26-.22s-.08.06-.13.09l.32-.18s-.05.02-.07.03l.38-.14s-.05.02-.08.02l.39-.07s-.07,0-.11,0h.37s-.07,0-.11-.01l.33.06c-.05-.01-.11-.03-.16-.05l.27.12c-.06-.03-.11-.06-.16-.1l.2.17c-.05-.05-.09-.1-.13-.16l.12.22s-.03-.09-.04-.14v.25s.02-.08.03-.13c.07-.26-.13-.52-.33-.65-.26-.17-.67-.21-.98-.18-.66.08-1.43.4-1.62,1.1h0Z"/>
  <path class="cls-3" d="M38.74,19.09l.09-.03-.76.09h.09c-.2-.04-.4-.09-.6-.14-.06-.07-.05-.06.03.04-.02.03-.01.07.03.11.07.17.1.38.14.56.08.37.13.75.17,1.13.06.73.02,1.48-.1,2.2-.24,1.5-.83,2.87-1.74,4.09-.42.56.36.95.82.97.71.02,1.47-.24,1.9-.82,1.14-1.52,1.85-3.37,2.02-5.26.08-.93.05-1.88-.11-2.8-.08-.45-.16-.97-.44-1.35-.45-.59-1.33-.58-1.97-.4-.47.13-1.4.56-1.23,1.2s1.22.55,1.67.42h0Z"/>
  <path class="cls-3" d="M71.67,27.75c1.65,0,2.23-2.12.26-2.12-1.65,0-2.23,2.12-.26,2.12h0Z"/>
  <path class="cls-3" d="M77.97,35.54c.47-1.48.66-3.02.57-4.57-.02-.38-1.23-.11-1.37-.08-.44.1-1.28.28-1.51.73-.72,1.4-.13,2.91.4,4.26.29.73.53,1.46.58,2.25s-.02,1.64.17,2.45c.1.42,1.32.11,1.56.04s1.44-.38,1.33-.82c-.19-.81-.12-1.63-.17-2.45-.05-.73-.26-1.42-.52-2.1-.5-1.3-1.2-2.79-.5-4.15l-2.88.65c.09,1.47-.08,2.91-.53,4.31-.15.48.95.29,1.15.25.38-.07.76-.18,1.1-.34.18-.09.53-.23.6-.43h0Z"/>
  <path class="cls-3" d="M78.48,12.52c.83,3.17,1.49,6.46,2.58,9.56.96,2.72,2.61,5.21,2.79,8.16.07,1.13,2.98.48,2.9-.78-.18-2.95-1.83-5.44-2.79-8.16-1.09-3.09-1.75-6.38-2.58-9.56-.31-1.17-3.21-.41-2.9.78h0Z"/>
  <path class="cls-3" d="M97.25,30.21c-.25-.46-.53-1-.56-1.54-.01-.19.05-.51.08-.61.04-.11.1-.22.16-.32.02-.03.2-.29.1-.16.15-.2.34-.37.52-.53.29-.27-.18.13.13-.11.1-.08.2-.15.3-.23.21-.16.43-.3.65-.45.15-.09.16-.1.04-.03l.13-.06s-.36.09-.35.06c0,.03,1.53.39,1.71.41.63.08,1.27.03,1.89-.1,1.17-.24,2.38-.9,2.94-2,.43-.84-.62-1.05-1.2-1.03-1.26.04-2.44.69-3.16,1.7-.41.57.35,1.01.83,1.04.73.04,1.47-.24,1.9-.84-.08.11.11-.16.03-.04-.05.03-.04.03.02-.01.08-.06.07-.05-.05.01.02-.07.21-.06-.02,0-.32.08.03,0,.11,0l-1.2-1.03c-.03.07-.07.13-.1.19-.07.1-.08.12-.03.06.09-.11-.33.27-.03.04-.07.06-.34.18-.04.05-.06.03-.13.06-.2.09l.17-.06c-.07.02-.14.04-.21.06-.17.04-.14.03.06,0-.07.05-.26.02-.34.03.33-.03-.01,0-.08-.01-.09,0-.34-.05-.12,0-.65-.14-1.25-.4-1.93-.42-.98-.03-1.88.32-2.69.84-.98.64-2.07,1.43-2.62,2.49-.68,1.31-.18,2.51.47,3.71.12.23.59.32.8.33.36.03.81-.05,1.14-.21.54-.26,1.06-.71.73-1.33h0Z"/>
  <path class="cls-3" d="M101.63,25.25c-.4-.92-.43-1.84-.04-2.77.19-.45-.98-.26-1.15-.23-.43.08-1.5.28-1.71.76l-.31.73c-.18.41.83.27.97.25.61-.09,1.27-.27,1.76-.65,1.04-.8,2.21-1.69,3.49-2.08,1.21-.37,2.54.08,3.62.64,1.19.62,2.25,1.45,3.31,2.26s2.73,1.76,2.76,3.21c0,.44,2.82-.05,2.9-.78.1-.88-.49-1.5-.96-2.17-.51-.73-.54-1.71-1.25-2.28-.83-.67-2.09-.97-3.07-1.35-1.03-.41-2.08-.91-3.17-1.1-2.25-.38-4.62.49-6.53,1.61-.95.55-1.84,1.19-2.75,1.8-.77.52-1.73,1.02-1.83,2.04-.03.31,2.82.05,2.9-.78s1.2-1.27,1.79-1.68c.69-.47,1.37-.94,2.09-1.36.57-.34,1.1-.65,1.78-.57.88.1,1.72.49,2.53.82s1.63.64,2.44.97c.74.3,1.34.6,1.59,1.41.21.67.52,1.15.92,1.71.38.53.7,1.04.63,1.72l2.9-.78c-.02-.86-.59-1.48-1.21-2.02-.74-.66-1.54-1.25-2.32-1.84-1.42-1.07-2.92-2.14-4.68-2.55-3.75-.87-7.6,1.21-10.47,3.42l2.73-.4.31-.73-2.85.53c-.42.99-.44,2.02,0,3.02.28.65,3.1-.31,2.9-.78h0Z"/>
  <path class="cls-3" d="M253.66,30.1l-.2,1.83-.1.89c-.02.16-.08.39-.04.55.05.17.24.3.36.42.42.41,1.24.24,1.72.08.38-.13,1.2-.49,1.07-1.03-.2-.79-.42-1.6-.94-2.25-.56-.69-1.44-1.05-2.32-1.04-.56.01-1.13.16-1.59.49-.25.18-.62.57-.32.88.66.69,1.41,1.28,2.23,1.77.97.59,2.01,1.01,3.17.83,1.05-.17,2.94-1,2.45-2.4-.35-1-1.47-1.3-2.41-1.45-.36-.06-.73-.02-1.08.07-.32.09-.72.25-.97.48-.16.15-.36.36-.29.61.06.23.35.35.56.38.17.03.33.06.5.09.07.02.14.03.2.05.08.02.05.01-.07-.02.04.01.08.03.12.05.06.03.12.06.19.09.19.1-.07-.09.07.05.11.11.21.21.29.35l-.1-.17c.1.18.15.36.15.56v-.2c0,.1-.03.19-.06.28.02-.07.07-.11,0-.03.17-.21.08-.09.02-.03-.05.04-.03.03.05-.03.05-.05.11-.08.18-.11.32-.16-.21.06.16-.07.08-.03.16-.06.25-.07.14-.02.17-.03.09-.02-.16.02.32-.02.13-.01-.15,0,.21.05.07,0-.07-.02-.14-.03-.21-.05.21.08-.08-.04-.15-.07-.23-.1-.45-.21-.66-.33-.2-.11-.4-.23-.6-.36-.01,0-.15-.1-.09-.06s-.07-.05-.08-.06c-.11-.08-.21-.15-.32-.24-.39-.3-.76-.64-1.1-1l-1.92,1.37s.1,0,.15,0c-.19-.02-.23-.03-.14,0,.04,0,.07.01.11.02-.13-.05-.16-.05-.09-.03.08.04.16.07.24.11.04.02.21.15.06.03.27.22.48.46.66.75l-.1-.17c.31.54.46,1.14.61,1.74l2.8-.95c-.08-.08-.17-.16-.25-.24l.1.37.34-3.06c.07-.63-.81-.66-1.24-.6-.38.06-.77.16-1.1.37-.2.13-.52.34-.55.6h0Z"/>
  <path class="cls-3" d="M235.08,10.35c.28.97-.33,1.86-.55,2.79-.23.97-.14,2.02-.14,3,.01,2.15.02,4.31.04,6.46,0,.85,2.9.32,2.9-.78-.01-2.15-.02-4.31-.04-6.46,0-1.02-.06-2.03.25-3.01.29-.92.72-1.8.44-2.78s-3.18-.18-2.9.78h0Z"/>
  <path class="cls-3" d="M234.24,14.55v2.28c0,.21.42.29.54.31.34.05.75,0,1.07-.1s.71-.22.98-.45l.19-.18c.1-.1.14-.22.12-.36v-2.28c0-.21-.42-.29-.54-.31-.34-.05-.75,0-1.07.1s-.71.22-.98.45l-.19.18c-.1.1-.14.22-.12.36h0Z"/>
  <path class="cls-3" d="M234.19,28.53c-.03,4.1-.32,8.19-.13,12.29.03.66,1.29.55,1.67.44.59-.16,1.26-.54,1.23-1.22-.18-3.94.12-7.88.14-11.82,0-.67-.73-.81-1.29-.75-.47.05-1.62.41-1.63,1.06h0Z"/>
  <path class="cls-3" d="M231.81,23.69c1.23,2.7,1.62,5.65,1.65,8.59,0,.69,0,1.37-.02,2.06s-.16,1.51.08,2.17c.19.53.58.91.7,1.49.14.7-.02,1.42-.16,2.1-.24,1.2,2.7.75,2.91-.32.13-.68.25-1.36.21-2.05s-.34-1.18-.66-1.8-.19-1.27-.17-1.91c.02-.78.03-1.57.02-2.35-.05-3-.4-5.99-1.66-8.75-.49-1.08-3.34-.2-2.9.78h0Z"/>
  <path class="cls-3" d="M220.93,25.72c.01.07.02.14.03.21l-.02-.27c0,.13,0,.26-.01.38,0,.01-.04.17-.03.17.05-.15.06-.18.03-.1-.01.03-.02.07-.04.1-.02.05-.05.11-.08.16-.1.18-.02,0,.04-.05-.04.03-.1.12-.13.16-.16.18.24-.2.04-.05-.43.33-.74.93-.27,1.37.51.47,1.28.33,1.86.1.18-.07.36-.14.54-.21.09-.04.18-.07.27-.11.26-.1-.34.06-.04.02-.16.02-.45.11-.59,0,.06.05.25.06.31.08.49.11,1.01.04,1.47-.18.52-.25.99-.7,1.06-1.3.06-.47-.21-.85-.41-1.24l.12.24c-.11-.26-.17-.52-.19-.8l.02.27c-.03-.72.08-1.43-.04-2.15-.09-.53-.89-.7-1.31-.65-.27.03-.53.1-.77.21-.26.12-.63.39-.75.68-.16.41-.34.82-.49,1.24-.09.25-.16.49-.18.76,0,.06,0,.11,0,.17-.02.1-.01.11.01.03.03-.08.03-.08,0,.02-.02.05-.05.1-.08.15-.11.23.13-.18,0,.02-.07.1-.14.2-.21.31-.16.24-.32.48-.48.72-.24.36-.46.73-.68,1.11l2.83-.23v-.08c0,.09,0,.18.01.27,0-.1.02-.2.02-.3.03-.12.02-.1-.03.05.02-.05.03-.1.05-.14.07-.17.16-.33.24-.5.21-.39.35-.8.51-1.21s.43-.8.67-1.18c.27-.43.53-.85.8-1.28.14-.23.1-.58-.05-.79-.18-.24-.54-.38-.82-.4-.75-.06-1.49.24-1.89.88-.28.44-.55.88-.83,1.32s-.54.84-.71,1.31c-.15.43-.33.81-.54,1.22-.11.22-.2.44-.27.67-.1.33-.1.59-.08.93l.12.24c.09.12.21.21.35.26.26.12.56.18.85.15.61-.07,1.2-.34,1.52-.88.22-.37.44-.74.68-1.11.07-.1.14-.21.2-.31.14-.21-.12.18.03-.05s.33-.45.46-.68c.13-.22.22-.48.24-.73,0-.08,0-.17,0-.25,0-.06,0-.11.02-.17.03-.12.02-.11-.01.03,0-.02.09-.23.1-.25.05-.12.1-.24.14-.36.08-.21.17-.42.25-.63l-2.83.23c.02.11.03.22.04.34l-.02-.27c.02.49-.04.97-.02,1.45,0,.28.02.57.09.85.08.3.24.58.39.85l-.12-.24c.06.12.1.24.12.37l-.02-.27c0,.07-.06.19,0,.05.13-.26.2-.43.56-.57l.77-.21c.47-.07.67.11.36.02-.17-.05-.33-.08-.51-.09-.39-.03-.79.02-1.16.14-.47.15-.93.35-1.39.53l1.59,1.47c.86-.66,1.36-1.67,1.15-2.77-.05-.28-.36-.49-.61-.57-.33-.12-.77-.11-1.1,0-.59.18-1.33.64-1.19,1.36h0Z"/>
  <path class="cls-3" d="M226.08,32.74c.64,1.62.97,3.34.94,5.09,0,.7.06,1.79-.39,2.37-.24.3-.48.55-.6.93s-.14.76-.17,1.14,2.84.07,2.9-.78c.03-.39.06-.79.23-1.14.15-.32.45-.52.62-.83.18-.34.2-.8.24-1.18.05-.42.07-.85.08-1.28.02-1.74-.31-3.47-.94-5.09-.27-.67-3.11.24-2.9.78h0Z"/>
  <path class="cls-3" d="M225.34,32.36s.06,0,.09.01l-.26-.05c.1.02.2.05.29.1l-.18-.09c.18.09.33.22.44.39l-.09-.13c.1.14.16.3.19.46.03.09.09.15.18.18.1.06.22.09.35.09.29.02.59-.01.87-.07.31-.07.63-.16.91-.31l.27-.16c.13-.09.24-.2.31-.34.03-.16.05-.32.06-.48,0-.11-.01-.22-.06-.32-.05-.08-.1-.18-.18-.24-.02-.02-.05-.04-.07-.05-.08-.04-.16-.09-.24-.12-.07-.02-.14-.03-.21-.05-.07-.01-.14-.03-.21-.03-.17-.01-.34,0-.5-.01h.32c-.07,0-.14,0-.21-.01l.26.05c-.06-.01-.11-.03-.16-.06l.18.09c-.1-.05-.18-.12-.24-.2l.09.13s-.02-.03-.03-.05c-.03-.09-.09-.15-.18-.18-.1-.06-.22-.09-.35-.09-.17-.02-.33-.01-.5.01-.19.01-.38.05-.57.1l-.38.12c-.21.08-.41.18-.6.31l-.2.17c-.1.09-.14.2-.12.33.06.1.13.21.22.29.1.09.23.15.35.2.3.13.67.11.99.11h-.32c.06,0,.13,0,.19,0l-.26-.05s.1.02.14.05l-.18-.09c.06.03.1.07.14.12l-.09-.13c.08.13.09.28.08.43v-.16c0,.09,0,.17-.03.26l2.88-.62c-.02-.13-.06-.25-.12-.36-.08-.15-.19-.3-.32-.42-.14-.13-.31-.21-.48-.3-.19-.09-.41-.13-.61-.15-.17-.02-.33-.01-.5.01-.19.01-.38.05-.57.1-.19.05-.37.11-.55.2-.15.06-.3.14-.44.24l-.2.17c-.1.09-.14.2-.12.33l.09.13c.13.09.28.13.44.14h0Z"/>
  <path class="cls-3" d="M75.07,48.65c1.61-.24,3.13-.74,4.57-1.51.39-.21.77-.53.4-.9s-1.43-.02-1.8.12l-1.07.39-.43.16c-.38.12-.28.12.31,0l.54.3-.1-.17-.58.7c-1.27.59-.57.05-.28.88.13.37,0,.76.07,1.14.09.48.35.85.82,1.02,1.16.41,3.03-.31,3.43-1.51.52-1.55-1.12-1.63-2.2-1.43-1.53.27-2.93,1.02-3.99,2.15-.35.38.11.59.42.65,1.67.35,3.43.08,4.99-.58.82-.35,1.58-.82,2.23-1.42.43-.39,1.24-1.12,1.25-1.76,0-1.64-3.54-.17-4.16.12-1.02.48-2.02.99-3.03,1.49-.68.34-1.88.67-2.07,1.52-.04.12-.01.23.08.31,1.76,1.45,4.94.89,6.84.09.29-.12,1.23-.56.82-1-1.04-1.11-3.25-.06-3.95.97-.17.24-.17.49.16.6,2.22.71,3.51-1.46,4.02-3.24.32-1.11-.04-2.32.47-3.36s1.55-1.94,2.21-2.95c1.31-1.99,2.16-4.25,2.21-6.65.05-2.68-.85-5.3-.54-7.98.11-.95-2.78-.4-2.88.43-.23,2.04.14,4,.38,6.02.28,2.33.05,4.48-.93,6.63-.83,1.8-2.34,3.06-3.24,4.78-.49.93-.29,1.73-.39,2.73-.05.53-.23,1.04-.44,1.53-.05.12-.56,1.23-.43,1.15l2.04-.32-.14-.04.16.6c.09-.17.21-.3.36-.41l-.98.45.27-.06-1.33.04.25.15.82-1c-.51.21-.95.31-1.5.26-.16-.01-1.36-.2-1.36-.21.02.04,2.83-1.41,3.1-1.54.22-.11.43-.21.65-.32-.36-.06-.61.07-.74.37-.37.29-.62.68-1.03.93-.76.46-1.5.46-2.35.28l.42.65c.25-.26.62-.67,1-.74.3-.13.2,0-.29.4-.16.2-.18.29-.05.26l1.46-.39c.2,0,.04-1.52-.04-1.72-.16-.41-.51-.71-.9-.9-1.1-.54-2.37-.19-3.42.29-.15.07-.74.44-.58.7.82,1.4,3.71-.16,4.73-.53l-1.41-.78c-.76.41-1.51.67-2.37.8-.44.07-1.59.33-1.67.89s.88.5,1.21.45h0Z"/>
  <path class="cls-3" d="M19.12,8.75c-.19.31-.16.7-.15,1.05.01.37.02.74.05,1.11.02.32.14.66.45.81.36.17.77.16,1.15.1.69-.09,1.39-.31,1.94-.74.13-.1.2-.27.06-.38-.16-.13-.56-.1-.74-.09-.68.07-1.4.27-1.94.69.7-.5,1.43-.7,2.19-.6-.02,0-.04-.01-.07-.02l.17.07c-.09-.04-.16-.09-.23-.16l.08.1c-.22-.3-.18-.72-.2-1.07-.02-.39-.07-.8-.02-1.19l-.02.13c.02-.12.06-.22.12-.32.11-.17-.12-.27-.24-.3-.27-.07-.65-.02-.92.03-.38.07-.76.17-1.1.34-.22.11-.46.23-.6.44h0Z"/>
  <path class="cls-3" d="M189.19,21.6c.22.79.27,1.57.14,2.38-.12.75-.41,1.46-.49,2.21-.2,1.72-.63,3.38-1.03,5.07-.17.71.82,1.07,1.36,1.02.74-.07,1.41-.46,1.59-1.21.21-.89.43-1.78.64-2.67s.29-1.72.42-2.6c.12-.8.44-1.56.52-2.37.08-.87,0-1.77-.23-2.61-.38-1.4-3.28-.62-2.9.78h0Z"/>
  <path class="cls-3" d="M269.87,39.84c.53.93.99,1.96,1.06,3.04s-.41,1.92-1.1,2.66c-.77.82-1.52,1.61-2.17,2.53-.31.44-.6.9-.96,1.29-.22.25-.65.62-.82.67-.44.13-1.4.5-1.25,1.12s1.26.46,1.65.35c1.42-.43,2.52-1.27,3.42-2.44.42-.55.79-1.14,1.21-1.69.38-.49.83-.91,1.25-1.36.87-.92,1.63-1.95,1.68-3.26s-.42-2.56-1.07-3.71c-.32-.56-1.1-.49-1.65-.35-.29.08-1.55.59-1.25,1.12h0Z"/>
  <path class="cls-3" d="M266.59,38.38c.8,1.04,1.65,2.08,2.37,3.19s.33,2.39.23,3.57c-.05.61-.06,1.27-.18,1.87-.05.22-.11.43-.24.61-.07.1-.2.15.01.06,0,0-.37.14-.19.08s-.21.07-.21.06c-.28.09-.57.17-.84.27-.53.19-1.05.43-1.5.77s-.38.66.19.71c.63.05,1.54-.15,2.05-.55.01,0,.24-.17.2-.14-.14.09-.08.04.03,0,.4-.18-.27.08.15-.05.09-.03.18-.05.27-.08.66-.2,1.32-.42,1.9-.8.43-.28.82-.65.99-1.15.21-.62.19-1.36.24-2,.06-.7.13-1.41.19-2.11.05-.66.03-1.23-.33-1.81-.75-1.23-1.72-2.36-2.59-3.5-.12-.15-.61-.13-.75-.12-.38.02-.78.12-1.13.25-.3.11-1.18.46-.85.89h0Z"/>
  <path class="cls-3" d="M266.53,40.39c.98,1.19,1,2.85.85,4.3-.06.6-.03,1.56-.47,2.03.15-.16-.09.04-.15.07-.18.11-.36.21-.54.32-.36.21-.72.43-1.08.64l2.22.36c.88-1.4,1.72-3.05,1.94-4.71.2-1.52-.37-3.05-1.54-4.05-.38-.32-1.09-.23-1.53-.1-.39.11-1.19.37-1.27.85-.14.84.16,1.55.45,2.32.33.86.4,1.61.08,2.49-.13.35-.28.69-.49.99-.05.07-.1.13-.15.19-.02.02-.17.2-.1.11-.09.11-.11.03-.01.02.23-.01.48-.18.74-.18.37,0,.07-.03.08-.02.06.04-.16-.08-.18-.09-.12-.07-.22-.18-.32-.28-.28-.27-.51-.59-.72-.91l-2.51,1.21c.96.57,2.36.28,3.3-.18.86-.42,1.47-1.06,2.03-1.82.39-.53-.34-.76-.76-.75-.63.01-1.52.22-1.92.76-.22.31-.45.63-.73.87-.06.05-.07.05-.03.03.04-.02.03-.02-.03.02-.09.05-.07.04.05-.02l.41-.11s.16.01.19,0c.02-.01-.12-.07-.19-.11-.59-.35-3.13.3-2.51,1.21.57.84,1.27,1.56,2.33,1.68,1.44.15,2.99-.52,3.79-1.74.6-.92,1.02-2.08.84-3.19-.16-.97-.91-1.9-.75-2.9l-2.79.75c1.01.86,1.55,2.19,1.33,3.51-.24,1.47-.92,2.92-1.71,4.17-.26.41.03.66.44.73.58.1,1.28-.07,1.78-.37.82-.49,1.8-.93,2.49-1.6s.75-1.55.84-2.45c.2-1.8.2-3.68-1.02-5.15-.58-.7-3.36.3-2.7,1.09h0Z"/>
  <path class="cls-3" d="M273.21,42.71c-.89,2.05-1.61,4.16-2.15,6.33-.12.47.93.28,1.15.23.54-.1,1.37-.28,1.71-.76,1.65-2.37,2.78-5.05,3.32-7.88.14-.76-2.27.11-2.53.25-.62.34-.95.86-1.22,1.49-.31.74-.62,1.48-.85,2.25-.41,1.39-.57,2.95.09,4.3.36.74.8,1.19,1.67,1.17.98-.03,2.35-.4,2.68-1.43.52-1.65,1.02-3.31,1.53-4.96l-2.88.65c.28.38.29.81.28,1.27-.02.59-.07,1.17-.12,1.76-.11,1.17-.27,2.33-.48,3.49-.06.33,1.3.08,1.36.07.36-.08,1.37-.29,1.51-.72.36-1.16.03-2.48-.11-3.66-.15-1.3-.3-2.59-.45-3.89l-2.9.78c.48,2.67,1.11,5.32,1.9,7.92.18.58,3.01-.15,2.9-.78-.45-2.43-.6-4.9-.44-7.36l-2.9.78c.44,1.47.37,2.99.29,4.5-.02.35,2.85.04,2.9-.78.09-1.51.15-3.03-.29-4.5-.13-.42-1.3-.09-1.56-.02-.36.1-1.31.32-1.34.8-.16,2.47-.01,4.93.44,7.36l2.9-.78c-.79-2.6-1.42-5.24-1.9-7.92-.1-.53-2.98.09-2.9.78.14,1.23.28,2.46.42,3.7.07.58.13,1.17.2,1.75.07.62.16,1.25-.03,1.85l2.88-.65c.21-1.16.37-2.32.48-3.49.05-.55.09-1.11.12-1.66.02-.48.03-.96-.27-1.37-.26-.35-1.03-.14-1.36-.07-.36.08-1.38.29-1.51.72-.29.94-.58,1.87-.86,2.81-.13.44-.27.87-.4,1.31-.1.33-.18,1.05-.46,1.27l1.2-.54-.14.04,1.06-.15h-.14c.14.02.28.04.42.07-.67-.27-.98-1.22-1.12-1.87-.15-.69-.14-1.42-.03-2.11.14-.81.42-1.59.72-2.35.2-.49.43-1.51.93-1.78l-2.53.25c-.54,2.83-1.67,5.52-3.32,7.88l2.85-.53c.53-2.17,1.25-4.28,2.15-6.33.2-.46-.99-.26-1.15-.23-.44.08-1.49.28-1.71.76h0Z"/>
  <path class="cls-3" d="M119.02,27.62c-.15,1.97-2.48,2.62-3.98,3.32-2.03.94-4.06,1.9-5.88,3.22l2.11.84c.05-.06.09-.12.09-.12.08-.06.07-.05-.03.01l-.12.04s.3-.08.34-.09c.26-.06-.35.05.11-.02.65-.09,1.3-.21,1.92-.44,1.13-.42,2-1.25,3.01-1.88,1.99-1.26,4.23-2.45,4.94-4.88.19-.67-.88-.8-1.29-.76-.63.06-1.43.39-1.63,1.06-.59,2.02-2.92,2.82-4.49,3.93-.42.29-.81.62-1.24.89-.09.05-.05.04-.19.1-.07.03-.23.08-.07.03,0,0-.39.09-.23.06.17-.03-.21.03-.24.04-1.17.19-2.45.43-3.25,1.38-.35.41-.38.9.18,1.13s1.42.08,1.93-.29c1.87-1.36,3.98-2.27,6.07-3.25,1.97-.93,4.67-2.14,4.86-4.64.1-1.31-2.83-.81-2.91.3h0Z"/>
</svg>